<!DOCTYPE svg PUBLIC "-//W3C//DTD SVG 1.1//EN" "http://www.w3.org/Graphics/SVG/1.1/DTD/svg11.dtd">
<!-- Uploaded to: SVG Repo, www.svgrepo.com, Transformed by: SVG Repo Mixer Tools -->
<svg height="800px" width="800px" version="1.1" id="_x32_" xmlns="http://www.w3.org/2000/svg" xmlns:xlink="http://www.w3.org/1999/xlink" viewBox="-102.4 -102.4 716.80 716.80" xml:space="preserve" fill="#000000" stroke="#000000" stroke-width="5.12">
<g id="SVGRepo_bgCarrier" stroke-width="0">
<path transform="translate(-102.4, -102.4), scale(22.4)" d="M16,24.496812323108315C18.11571795383855,24.329687086837417,19.648629308151722,27.16943821572343,21.762407956599496,26.979351051086546C23.846928288374524,26.791895018362386,26.007980472926345,25.41502002010352,26.89086628609227,23.517422217960373C27.78934443865378,21.58631160076673,26.9229817003566,19.282848827253225,26.289430666186124,17.249363077716268C25.79443267686869,15.660586005251426,24.157188143601307,14.68393185156735,23.64537640304824,13.100491187175313C23.09489614681995,11.39741805775685,24.222410355221896,9.322421115766327,23.243002919184228,7.824339785905201C22.27568541462335,6.344750964838936,20.145086914438576,6.28229433745053,18.612207014733215,5.40185953172473C16.49505948075595,4.1858409916366135,14.807065207504065,0.9640668291971833,12.4580731330333,1.6298378142495409C10.067670933152321,2.3073456034763904,10.376724407410011,6.039563735581277,9.01954282389642,8.120692667442642C8.059488164426769,9.592859363676475,6.26479844624222,10.428236950756434,5.647233341525665,12.073713499390859C5.030280667812999,13.71755825107487,5.201134276846742,15.551575176905306,5.587862439750371,17.264262392148492C5.95435919897612,18.887351616478966,7.206672848936533,20.102352843448873,7.810249855324498,21.652976363849753C8.615845178665761,23.722596384289986,7.641133392546294,27.200582273658867,9.739127142152661,27.929096570436194C12.020572158161928,28.721313092428204,13.592422380589095,24.686992199284415,16,24.496812323108315" fill="#7ed0ec" strokewidth="0"/>
</g>
<g id="SVGRepo_tracerCarrier" stroke-linecap="round" stroke-linejoin="round"/>
<g id="SVGRepo_iconCarrier"> <style type="text/css"> .st0{fill:#000000;} </style> <g> <path class="st0" d="M188.858,102.634c26.588,10.645,56.793-2.287,67.428-28.874C266.941,47.171,254,16.966,227.411,6.33 c-26.597-10.654-56.782,2.278-67.438,28.876C149.339,61.794,162.251,91.98,188.858,102.634z"/> <path class="st0" d="M502.664,130.434L433.106,13.819c-5.298-9.872-16.011-14.946-26.5-13.607c-0.245,0.02-0.489,0.078-0.723,0.098 c-0.773,0.127-1.555,0.294-2.326,0.479c-0.46,0.127-0.929,0.225-1.378,0.371c-1.604,0.5-3.177,1.144-4.702,1.965 c-2.835,1.526-6.031,3.618-8.045,5.905l-76.508,59.256l-55.668,42.775c-23.382,15.122-41.496,14.389-62.58,9.56L30.582,74.052 C19.918,70.836,8.647,76.877,5.441,87.551c-3.206,10.664,2.834,21.935,13.509,25.151l156.39,60.624 c6.882,2.014,18.445,18.456,26.362,27.233c11.564,12.864,55.62,78.493,159.9,80.839c6.402,0.147,7.996,1.76,8.788,6.159 l19.677,200.758c0,13.078,10.606,23.684,23.685,23.684c13.069,0,23.684-10.606,23.684-23.684c0,0,2.336-257.004,2.63-261.383 c0.352-5.386,3.734-8.445,8.524-12.707c0,0,40.244-39.609,40.947-40.068C509.81,160.736,510.768,143.748,502.664,130.434z M372.159,181.245c-4.887,3.538-22.59,6.95-29.863,6.822c-42.638-0.684-46.294-35.238-33.401-48.132l35.913-33.723l51.622-47.438 l36.188,74.955L372.159,181.245z"/> </g> </g>
</svg>