<svg xmlns="http://www.w3.org/2000/svg" version="1.1" xmlns:xlink="http://www.w3.org/1999/xlink" xmlns:svgjs="http://svgjs.dev/svgjs" width="2000" height="540" viewBox="0 0 2000 540"><g transform="matrix(1,0,0,1,-1.2121212121212466,0.08063116976836682)"><svg viewBox="0 0 396 107" data-background-color="#000000" preserveAspectRatio="xMidYMid meet" height="540" width="2000" xmlns="http://www.w3.org/2000/svg" xmlns:xlink="http://www.w3.org/1999/xlink"><g id="tight-bounds" transform="matrix(1,0,0,1,0.2400000000000091,-0.015976916972618938)"><svg viewBox="0 0 395.52 107.03195383394524" height="107.03195383394524" width="395.52"><g><svg viewBox="0 0 395.52 107.03195383394524" height="107.03195383394524" width="395.52"><g><svg viewBox="0 0 395.52 107.03195383394524" height="107.03195383394524" width="395.52"><g id="textblocktransform"><svg viewBox="0 0 395.52 107.03195383394524" height="107.03195383394524" width="395.52" id="textblock"><g><svg viewBox="0 0 395.52 77.21648590021691" height="77.21648590021691" width="395.52"><g transform="matrix(1,0,0,1,0,0)"><svg width="395.52" viewBox="4 -40 207.44 40.5" height="77.21648590021691" data-palette-color="#ffffff"><path d="M14.85-5L21.65-5Q23.5-5 24.25-6.05 25-7.1 25-8.4L25-8.4 25-31.3Q25-32.55 24.25-33.6 23.5-34.65 21.65-34.65L21.65-34.65 9.95-34.65 9.9-2.05Q9.9-0.95 9.05-0.3 8.2 0.35 6.95 0.35L6.95 0.35Q4 0.35 4-2.05L4-2.05 4-36.7Q4-38.5 4.93-39.1 5.85-39.7 7.15-39.7L7.15-39.7 22.9-39.7Q24.2-39.7 25.6-39.15 27-38.6 28.3-37.75L28.3-37.75 28.25-37.75Q29.55-36.8 30.25-35.27 30.95-33.75 30.95-31.75L30.95-31.75 30.95-8Q30.95-3.95 28.25-1.95L28.25-1.95Q26.95-1 25.58-0.48 24.2 0.05 22.9 0.05L22.9 0.05 14.5 0.05Q13.65 0.05 13.18-0.65 12.7-1.35 12.7-2.5L12.7-2.5Q12.7-5 14.85-5L14.85-5ZM60 0.05L41.7 0.05Q39.85 0.05 39.2-0.9 38.55-1.85 38.55-3L38.55-3 38.55-36.7Q38.55-37.85 39.2-38.78 39.85-39.7 41.7-39.7L41.7-39.7 59.1-39.7Q60.95-39.7 61.05-37.2L61.05-37.2Q61.15-34.65 59.1-34.65L59.1-34.65 44.45-34.65 44.45-5 60-5Q61.85-5 61.9-2.55L61.9-2.55Q62 0.05 60 0.05L60 0.05ZM57.25-20.65L57.25-20.65Q57.25-18.9 56.02-17.7 54.8-16.5 53.05-16.5L53.05-16.5Q51.35-16.5 50.15-17.7 48.95-18.9 48.95-20.65L48.95-20.65Q48.95-22.4 50.15-23.6 51.35-24.8 53.05-24.8L53.05-24.8Q54.8-24.8 56.02-23.6 57.25-22.4 57.25-20.65ZM90.9-0.6L81.45-16.45 77.59-16.45Q76.75-16.45 76.27-17.13 75.8-17.8 75.8-18.95L75.8-18.95Q75.8-21.5 77.9-21.5L77.9-21.5 83.75-21.5Q85.59-21.5 86.34-22.55 87.09-23.6 87.09-24.85L87.09-24.85 87.09-31.3Q87.09-32.55 86.34-33.6 85.59-34.65 83.75-34.65L83.75-34.65 73.2-34.65 73.2-2.05Q73.2 0.35 70.25 0.35L70.25 0.35Q67.3 0.35 67.3-2.05L67.3-2.05 67.3-36.7Q67.3-38.5 68.22-39.1 69.14-39.7 70.45-39.7L70.45-39.7 85-39.7Q86.3-39.7 87.7-39.15 89.09-38.6 90.4-37.75L90.4-37.75 90.34-37.75Q91.65-36.8 92.34-35.27 93.05-33.75 93.05-31.75L93.05-31.75 93.05-24.45Q93.05-20.4 90.34-18.4L90.34-18.4Q89.8-18 89.17-17.65 88.55-17.3 87.9-16.95L87.9-16.95 95.9-3.75Q96.05-3.5 96.19-3.1 96.34-2.7 96.34-2.45L96.34-2.45Q96.34-1.25 94.65-0.15L94.65-0.15 94.65-0.2Q93.5 0.5 92.7 0.5L92.7 0.5Q91.55 0.5 90.84-0.65L90.84-0.65 90.9-0.6ZM124.59-0.6L115.14-16.45 111.29-16.45Q110.44-16.45 109.97-17.13 109.49-17.8 109.49-18.95L109.49-18.95Q109.49-21.5 111.59-21.5L111.59-21.5 117.44-21.5Q119.29-21.5 120.04-22.55 120.79-23.6 120.79-24.85L120.79-24.85 120.79-31.3Q120.79-32.55 120.04-33.6 119.29-34.65 117.44-34.65L117.44-34.65 106.89-34.65 106.89-2.05Q106.89 0.35 103.94 0.35L103.94 0.35Q100.99 0.35 100.99-2.05L100.99-2.05 100.99-36.7Q100.99-38.5 101.92-39.1 102.84-39.7 104.14-39.7L104.14-39.7 118.69-39.7Q119.99-39.7 121.39-39.15 122.79-38.6 124.09-37.75L124.09-37.75 124.04-37.75Q125.34-36.8 126.04-35.27 126.74-33.75 126.74-31.75L126.74-31.75 126.74-24.45Q126.74-20.4 124.04-18.4L124.04-18.4Q123.49-18 122.87-17.65 122.24-17.3 121.59-16.95L121.59-16.95 129.59-3.75Q129.74-3.5 129.89-3.1 130.04-2.7 130.04-2.45L130.04-2.45Q130.04-1.25 128.34-0.15L128.34-0.15 128.34-0.2Q127.19 0.5 126.39 0.5L126.39 0.5Q125.24 0.5 124.54-0.65L124.54-0.65 124.59-0.6ZM140.84-37.55L140.84-2.1Q140.84 0.3 137.84 0.3L137.84 0.3Q134.89 0.3 134.89-2.1L134.89-2.1 134.89-37.55Q134.89-39.95 137.84-39.95L137.84-39.95Q140.84-39.95 140.84-37.55L140.84-37.55ZM175.79-11.3L175.79-8Q175.79-3.95 173.09-1.95L173.09-1.95Q171.79-1 170.41-0.48 169.04 0.05 167.74 0.05L167.74 0.05 156.84 0.05Q155.54 0.05 154.16-0.48 152.79-1 151.49-1.95L151.49-1.95Q150.19-2.95 149.49-4.42 148.79-5.9 148.79-8L148.79-8 148.79-31.75Q148.79-33.75 149.49-35.27 150.19-36.8 151.49-37.75L151.49-37.75 151.44-37.75Q152.74-38.6 154.14-39.15 155.54-39.7 156.84-39.7L156.84-39.7 167.74-39.7Q169.04-39.7 170.44-39.15 171.84-38.6 173.14-37.75L173.14-37.75 173.09-37.75Q174.39-36.8 175.09-35.27 175.79-33.75 175.79-31.75L175.79-31.75 175.79-28.3Q175.79-25.9 172.79-25.9L172.79-25.9Q169.84-25.9 169.84-28.3L169.84-28.3 169.84-31.3Q169.84-32.55 169.09-33.6 168.34-34.65 166.49-34.65L166.49-34.65 158.09-34.65Q156.24-34.65 155.49-33.6 154.74-32.55 154.74-31.3L154.74-31.3 154.74-8.4Q154.74-7.1 155.49-6.05 156.24-5 158.09-5L158.09-5 166.49-5Q168.34-5 169.09-6.05 169.84-7.1 169.84-8.4L169.84-8.4 169.84-11.3Q169.84-13.65 172.79-13.65L172.79-13.65Q175.79-13.65 175.79-11.3L175.79-11.3ZM188.94-21.2L204.19-39.1Q204.94-40 205.89-40L205.89-40Q206.94-40 208.04-39.05L208.04-39.05Q208.59-38.5 208.96-37.95 209.34-37.4 209.34-36.85L209.34-36.85Q209.34-35.95 208.69-35.3L208.69-35.3 201.99-27.5 188.94-12.15 188.94-2.1Q188.94 0.3 185.94 0.3L185.94 0.3Q182.99 0.3 182.99-2.1L182.99-2.1 182.99-37.55Q182.99-39.95 185.94-39.95L185.94-39.95Q188.94-39.95 188.94-37.55L188.94-37.55 188.94-21.2ZM206.59-1.5L197.09-15.35Q196.59-16.05 196.59-17.05L196.59-17.05Q196.59-18.55 197.84-19.45L197.84-19.45 197.79-19.45Q198.79-20.15 199.79-20.15L199.79-20.15Q200.74-20.15 201.39-19.05L201.39-19.05 211.04-4.95 210.99-5Q211.44-4.3 211.44-3.5L211.44-3.5Q211.44-2.2 210.14-1.2L210.14-1.2 210.19-1.2Q209.64-0.85 209.14-0.65 208.64-0.45 208.24-0.45L208.24-0.45Q207.84-0.45 207.41-0.75 206.99-1.05 206.59-1.5L206.59-1.5Z" opacity="1" transform="matrix(1,0,0,1,0,0)" fill="#ffffff" class="wordmark-text-0" data-fill-palette-color="primary" id="text-0"></path></svg></g></svg></g><g transform="matrix(1,0,0,1,0,95.44544502559651)"><svg viewBox="0 0 232.209792 11.58650880834873" height="11.58650880834873" width="232.209792"><g transform="matrix(1,0,0,1,0,0)"><svg width="232.209792" viewBox="1.8 -35 919.8100000000001 45.9" height="11.58650880834873" data-palette-color="#ffffff"><path d="M19.9-30.15L13.4-30.15 13.4-4.15 19.9-4.15 19.9 0 1.8 0 1.8-4.15 8.25-4.15 8.25-30.15 1.8-30.15 1.8-34.3 19.9-34.3 19.9-30.15ZM52.65-3.95L57.35-3.95 57.35 0 43.45 0 43.45-3.95 47.8-3.95 47.8-13.7Q47.8-16.45 46.42-18.03 45.05-19.6 42.5-19.6L42.5-19.6Q38.15-19.6 33.3-14.1L33.3-14.1 33.3-3.95 37.65-3.95 37.65 0 23.1 0 23.1-3.95 28.4-3.95 28.4-19.6 23.1-19.6 23.1-23.55 33.3-23.55 33.3-18Q36.1-21.1 38.67-22.63 41.25-24.15 44.2-24.15L44.2-24.15Q48.25-24.15 50.45-21.55 52.65-18.95 52.65-13.85L52.65-13.85 52.65-3.95ZM88.34-23.55L88.34-19.6 84.44-19.6 74 0.65 71.5 0.65 60.84-19.6 57.24-19.6 57.24-23.55 70-23.55 70-19.95 66.05-19.95 73.25-5.45 80.3-19.95 76.25-19.95 76.25-23.55 88.34-23.55ZM111.64-6.7L113.74-3.5Q108.94 0.7 102.79 0.7L102.79 0.7Q99.44 0.7 96.44-0.7 93.44-2.1 91.59-4.8 89.74-7.5 89.74-11.2L89.74-11.2Q89.74-15.15 91.64-18.1 93.54-21.05 96.59-22.63 99.64-24.2 102.99-24.2L102.99-24.2Q105.94-24.2 108.27-23.25 110.59-22.3 111.92-20.6 113.24-18.9 113.24-16.7L113.24-16.7Q113.24-13.4 110.42-11.58 107.59-9.75 103.64-9.75L103.64-9.75Q101.09-9.75 98.89-10.28 96.69-10.8 94.44-11.8L94.44-11.8 94.44-11.35Q94.44-9 95.57-7.2 96.69-5.4 98.59-4.45 100.49-3.5 102.74-3.5L102.74-3.5Q107.84-3.5 111.64-6.7L111.64-6.7ZM103.34-20.3Q100.64-20.3 98.32-18.75 95.99-17.2 94.99-14.55L94.99-14.55Q98.79-13.2 102.59-13.2L102.59-13.2Q105.09-13.2 106.72-14.13 108.34-15.05 108.34-16.7L108.34-16.7Q108.34-18.3 106.94-19.3 105.54-20.3 103.34-20.3L103.34-20.3ZM146.64-3.95L151.34-3.95 151.34 0 137.44 0 137.44-3.95 141.79-3.95 141.79-13.7Q141.79-16.45 140.41-18.03 139.04-19.6 136.49-19.6L136.49-19.6Q132.14-19.6 127.29-14.1L127.29-14.1 127.29-3.95 131.64-3.95 131.64 0 117.09 0 117.09-3.95 122.39-3.95 122.39-19.6 117.09-19.6 117.09-23.55 127.29-23.55 127.29-18Q130.09-21.1 132.66-22.63 135.24-24.15 138.19-24.15L138.19-24.15Q142.24-24.15 144.44-21.55 146.64-18.95 146.64-13.85L146.64-13.85 146.64-3.95ZM171.49-5.35L173.19-1.65Q171.34-0.55 169.56 0.05 167.79 0.65 165.49 0.65L165.49 0.65Q161.64 0.65 159.36-1.78 157.09-4.2 157.09-8.7L157.09-8.7 157.09-19.6 151.84-19.6 151.84-23.55 157.09-23.55 157.09-30.1 161.99-30.1 161.99-23.55 169.79-23.55 169.79-19.6 161.99-19.6 161.99-8.65Q161.99-6.1 163.14-4.9 164.29-3.7 166.24-3.7L166.24-3.7Q167.64-3.7 168.89-4.13 170.14-4.55 171.49-5.35L171.49-5.35ZM179.49 0.65Q177.78 0.65 176.59-0.28 175.38-1.2 175.38-2.6L175.38-2.6Q175.38-4.1 176.59-5.05 177.78-6 179.49-6L179.49-6Q181.34-6 182.51-5.05 183.69-4.1 183.69-2.6L183.69-2.6Q183.69-1.2 182.51-0.28 181.34 0.65 179.49 0.65L179.49 0.65ZM233.43-10.15L236.78-7.35Q234.33-3.75 230.56-1.55 226.78 0.65 221.63 0.65L221.63 0.65Q216.73 0.65 212.66-1.63 208.58-3.9 206.23-7.95 203.88-12 203.88-17.1L203.88-17.1Q203.88-22.35 206.18-26.43 208.48-30.5 212.33-32.75 216.18-35 220.63-35L220.63-35Q224.23-35 227.01-33.7 229.78-32.4 231.68-30.05L231.68-30.05 231.73-34.3 236.38-34.3 236.38-23.15 233.08-22.85Q229.48-30.85 221.38-30.85L221.38-30.85Q218.13-30.85 215.36-29.18 212.58-27.5 210.91-24.38 209.23-21.25 209.23-17.15L209.23-17.15Q209.23-13.25 210.88-10.18 212.53-7.1 215.36-5.35 218.18-3.6 221.63-3.6L221.63-3.6Q225.68-3.6 228.51-5.35 231.33-7.1 233.43-10.15L233.43-10.15ZM253.68 0.7Q250.23 0.7 247.23-0.85 244.23-2.4 242.45-5.25 240.68-8.1 240.68-11.75L240.68-11.75Q240.68-15.45 242.45-18.28 244.23-21.1 247.23-22.65 250.23-24.2 253.68-24.2L253.68-24.2Q257.08-24.2 260.05-22.65 263.03-21.1 264.83-18.25 266.63-15.4 266.63-11.75L266.63-11.75Q266.63-8.1 264.88-5.25 263.13-2.4 260.15-0.85 257.18 0.7 253.68 0.7L253.68 0.7ZM253.68-3.25Q255.93-3.25 257.73-4.3 259.53-5.35 260.55-7.28 261.58-9.2 261.58-11.75L261.58-11.75Q261.58-14.3 260.55-16.23 259.53-18.15 257.73-19.2 255.93-20.25 253.68-20.25L253.68-20.25Q250.23-20.25 248-17.93 245.78-15.6 245.78-11.75L245.78-11.75Q245.78-7.9 248-5.58 250.23-3.25 253.68-3.25L253.68-3.25ZM299.07-4.05L300.13-0.45Q299.43-0.05 298.43 0.23 297.43 0.5 296.32 0.5L296.32 0.5Q294.48 0.5 293.13-0.48 291.78-1.45 291.28-3.3L291.28-3.3Q289.28-1.5 287.05-0.4 284.82 0.7 282.13 0.7L282.13 0.7Q279.07 0.7 276.45-0.85 273.82-2.4 272.28-5.18 270.73-7.95 270.73-11.45L270.73-11.45Q270.73-15.1 272.35-18.03 273.98-20.95 276.78-22.58 279.57-24.2 282.98-24.2L282.98-24.2Q287.32-24.2 290.98-21L290.98-21 290.98-30.35 285.68-30.35 285.68-34.3 295.78-34.3 295.78-6.05Q295.78-3.65 297.43-3.65L297.43-3.65Q298.53-3.65 299.07-4.05L299.07-4.05ZM275.82-11.5Q275.82-7.9 277.85-5.7 279.88-3.5 283.13-3.5L283.13-3.5Q286.88-3.5 290.98-6.9L290.98-6.9 290.98-17.25Q287.48-20.05 284.07-20.05L284.07-20.05Q281.73-20.05 279.82-18.95 277.93-17.85 276.88-15.9 275.82-13.95 275.82-11.5L275.82-11.5ZM324.97-6.7L327.07-3.5Q322.27 0.7 316.12 0.7L316.12 0.7Q312.77 0.7 309.77-0.7 306.77-2.1 304.92-4.8 303.07-7.5 303.07-11.2L303.07-11.2Q303.07-15.15 304.97-18.1 306.87-21.05 309.92-22.63 312.97-24.2 316.32-24.2L316.32-24.2Q319.27-24.2 321.6-23.25 323.92-22.3 325.25-20.6 326.57-18.9 326.57-16.7L326.57-16.7Q326.57-13.4 323.75-11.58 320.92-9.75 316.97-9.75L316.97-9.75Q314.42-9.75 312.22-10.28 310.02-10.8 307.77-11.8L307.77-11.8 307.77-11.35Q307.77-9 308.9-7.2 310.02-5.4 311.92-4.45 313.82-3.5 316.07-3.5L316.07-3.5Q321.17-3.5 324.97-6.7L324.97-6.7ZM316.67-20.3Q313.97-20.3 311.65-18.75 309.32-17.2 308.32-14.55L308.32-14.55Q312.12-13.2 315.92-13.2L315.92-13.2Q318.42-13.2 320.05-14.13 321.67-15.05 321.67-16.7L321.67-16.7Q321.67-18.3 320.27-19.3 318.87-20.3 316.67-20.3L316.67-20.3ZM335.37 0.65Q333.67 0.65 332.47-0.28 331.27-1.2 331.27-2.6L331.27-2.6Q331.27-4.1 332.47-5.05 333.67-6 335.37-6L335.37-6Q337.22-6 338.4-5.05 339.57-4.1 339.57-2.6L339.57-2.6Q339.57-1.2 338.4-0.28 337.22 0.65 335.37 0.65L335.37 0.65ZM395.47-6.25L398.02-2.9Q394.87 0.7 390.72 0.7L390.72 0.7Q386.37 0.7 383.39-2.45 380.42-5.6 378.57-12.15L378.57-12.15 377.77-14.65 370.62-14.65 370.62-4.15 376.92-4.15 376.92 0 359.02 0 359.02-4.1 365.47-4.1 365.47-30.15 359.02-30.15 359.02-34.3 378.92-34.3Q384.77-34.3 388.17-31.65 391.57-29 391.57-24.45L391.57-24.45Q391.57-20.7 389.14-18.13 386.72-15.55 382.32-14.9L382.32-14.9 383.22-12.45Q384.77-8.05 386.67-6.05 388.57-4.05 390.97-4.05L390.97-4.05Q392.47-4.05 393.52-4.65 394.57-5.25 395.47-6.25L395.47-6.25ZM370.62-30.15L370.62-18.55 379.07-18.55Q382.27-18.55 384.37-20.13 386.47-21.7 386.47-24.45L386.47-24.45Q386.47-27.1 384.39-28.63 382.32-30.15 379.07-30.15L379.07-30.15 370.62-30.15ZM420.41-6.7L422.51-3.5Q417.71 0.7 411.56 0.7L411.56 0.7Q408.21 0.7 405.21-0.7 402.21-2.1 400.36-4.8 398.51-7.5 398.51-11.2L398.51-11.2Q398.51-15.15 400.41-18.1 402.31-21.05 405.36-22.63 408.41-24.2 411.76-24.2L411.76-24.2Q414.71-24.2 417.04-23.25 419.36-22.3 420.69-20.6 422.01-18.9 422.01-16.7L422.01-16.7Q422.01-13.4 419.19-11.58 416.36-9.75 412.41-9.75L412.41-9.75Q409.86-9.75 407.66-10.28 405.46-10.8 403.21-11.8L403.21-11.8 403.21-11.35Q403.21-9 404.34-7.2 405.46-5.4 407.36-4.45 409.26-3.5 411.51-3.5L411.51-3.5Q416.61-3.5 420.41-6.7L420.41-6.7ZM412.11-20.3Q409.41-20.3 407.09-18.75 404.76-17.2 403.76-14.55L403.76-14.55Q407.56-13.2 411.36-13.2L411.36-13.2Q413.86-13.2 415.49-14.13 417.11-15.05 417.11-16.7L417.11-16.7Q417.11-18.3 415.71-19.3 414.31-20.3 412.11-20.3L412.11-20.3ZM454.56-23.55L454.56-19.6 450.66-19.6 440.21 0.65 437.71 0.65 427.06-19.6 423.46-19.6 423.46-23.55 436.21-23.55 436.21-19.95 432.26-19.95 439.46-5.45 446.51-19.95 442.46-19.95 442.46-23.55 454.56-23.55ZM468.96 0.7Q465.51 0.7 462.51-0.85 459.51-2.4 457.73-5.25 455.96-8.1 455.96-11.75L455.96-11.75Q455.96-15.45 457.73-18.28 459.51-21.1 462.51-22.65 465.51-24.2 468.96-24.2L468.96-24.2Q472.36-24.2 475.33-22.65 478.31-21.1 480.11-18.25 481.91-15.4 481.91-11.75L481.91-11.75Q481.91-8.1 480.16-5.25 478.41-2.4 475.43-0.85 472.46 0.7 468.96 0.7L468.96 0.7ZM468.96-3.25Q471.21-3.25 473.01-4.3 474.81-5.35 475.83-7.28 476.86-9.2 476.86-11.75L476.86-11.75Q476.86-14.3 475.83-16.23 474.81-18.15 473.01-19.2 471.21-20.25 468.96-20.25L468.96-20.25Q465.51-20.25 463.28-17.93 461.06-15.6 461.06-11.75L461.06-11.75Q461.06-7.9 463.28-5.58 465.51-3.25 468.96-3.25L468.96-3.25ZM494.91-3.95L500.36-3.95 500.36 0 484.75 0 484.75-3.95 490-3.95 490-30.35 484.75-30.35 484.75-34.3 494.91-34.3 494.91-3.95ZM532.45-4L533.55-0.45Q531.85 0.5 529.8 0.5L529.8 0.5Q527.45 0.5 526-0.9 524.55-2.3 524.35-4.9L524.35-4.9Q521.85-2.15 519.45-0.75 517.05 0.65 514.4 0.65L514.4 0.65Q510.5 0.65 508.38-1.95 506.25-4.55 506.25-9.6L506.25-9.6 506.25-19.6 501.55-19.6 501.55-23.55 511.15-23.55 511.15-9.75Q511.15-6.95 512.33-5.43 513.5-3.9 516.1-3.9L516.1-3.9Q519.95-3.9 524.3-8.75L524.3-8.75 524.3-19.6 520-19.6 520-23.55 529.2-23.55 529.2-6.05Q529.2-3.6 530.9-3.6L530.9-3.6Q531.9-3.6 532.45-4L532.45-4ZM554.4-5.35L556.1-1.65Q554.25-0.55 552.47 0.05 550.7 0.65 548.4 0.65L548.4 0.65Q544.55 0.65 542.27-1.78 540-4.2 540-8.7L540-8.7 540-19.6 534.75-19.6 534.75-23.55 540-23.55 540-30.1 544.9-30.1 544.9-23.55 552.7-23.55 552.7-19.6 544.9-19.6 544.9-8.65Q544.9-6.1 546.05-4.9 547.2-3.7 549.15-3.7L549.15-3.7Q550.55-3.7 551.8-4.13 553.05-4.55 554.4-5.35L554.4-5.35ZM564.8-28.9Q563.2-28.9 562.1-29.75 561-30.6 561-31.9L561-31.9Q561-33.25 562.1-34.13 563.2-35 564.8-35L564.8-35Q566.5-35 567.6-34.13 568.7-33.25 568.7-31.9L568.7-31.9Q568.7-30.6 567.6-29.75 566.5-28.9 564.8-28.9L564.8-28.9ZM567.8-3.95L573.15-3.95 573.15 0 557.6 0 557.6-3.95 562.9-3.95 562.9-19.6 557.6-19.6 557.6-23.55 567.8-23.55 567.8-3.95ZM588.69 0.7Q585.24 0.7 582.24-0.85 579.24-2.4 577.47-5.25 575.69-8.1 575.69-11.75L575.69-11.75Q575.69-15.45 577.47-18.28 579.24-21.1 582.24-22.65 585.24-24.2 588.69-24.2L588.69-24.2Q592.09-24.2 595.07-22.65 598.04-21.1 599.84-18.25 601.64-15.4 601.64-11.75L601.64-11.75Q601.64-8.1 599.89-5.25 598.14-2.4 595.17-0.85 592.19 0.7 588.69 0.7L588.69 0.7ZM588.69-3.25Q590.94-3.25 592.74-4.3 594.54-5.35 595.57-7.28 596.59-9.2 596.59-11.75L596.59-11.75Q596.59-14.3 595.57-16.23 594.54-18.15 592.74-19.2 590.94-20.25 588.69-20.25L588.69-20.25Q585.24-20.25 583.02-17.93 580.79-15.6 580.79-11.75L580.79-11.75Q580.79-7.9 583.02-5.58 585.24-3.25 588.69-3.25L588.69-3.25ZM634.69-3.95L639.39-3.95 639.39 0 625.49 0 625.49-3.95 629.84-3.95 629.84-13.7Q629.84-16.45 628.47-18.03 627.09-19.6 624.54-19.6L624.54-19.6Q620.19-19.6 615.34-14.1L615.34-14.1 615.34-3.95 619.69-3.95 619.69 0 605.14 0 605.14-3.95 610.44-3.95 610.44-19.6 605.14-19.6 605.14-23.55 615.34-23.55 615.34-18Q618.14-21.1 620.72-22.63 623.29-24.15 626.24-24.15L626.24-24.15Q630.29-24.15 632.49-21.55 634.69-18.95 634.69-13.85L634.69-13.85 634.69-3.95ZM648.74-28.9Q647.14-28.9 646.04-29.75 644.94-30.6 644.94-31.9L644.94-31.9Q644.94-33.25 646.04-34.13 647.14-35 648.74-35L648.74-35Q650.44-35 651.54-34.13 652.64-33.25 652.64-31.9L652.64-31.9Q652.64-30.6 651.54-29.75 650.44-28.9 648.74-28.9L648.74-28.9ZM651.74-3.95L657.09-3.95 657.09 0 641.54 0 641.54-3.95 646.84-3.95 646.84-19.6 641.54-19.6 641.54-23.55 651.74-23.55 651.74-3.95ZM681.59-8.85L685.79-7.7Q685.49-5.15 684.14-3.25 682.79-1.35 680.74-0.33 678.69 0.7 676.44 0.7L676.44 0.7Q673.54 0.7 671.06-0.63 668.59-1.95 665.89-4.6L665.89-4.6Q664.24-2.35 663.24 0.7L663.24 0.7 659.24-0.85Q660.39-4.55 662.31-7 664.24-9.45 666.29-10.88 668.34-12.3 671.39-13.9L671.39-13.9 672.49-14.5Q674.99-15.85 675.79-16.4L675.79-16.4Q673.44-18.15 670.76-19.07 668.09-20 664.39-20L664.39-20 664.39-14.15 660.24-14.15 660.24-24.2 663.44-24.2Q666.99-24.2 669.54-23.58 672.09-22.95 674.06-21.8 676.04-20.65 678.44-18.65L678.44-18.65Q680.19-20.7 680.84-24.25L680.84-24.25 684.99-22.75Q684.24-19.3 682.71-17 681.19-14.7 679.11-13.28 677.04-11.85 673.84-10.35L673.84-10.35Q671.79-9.35 670.46-8.58 669.14-7.8 668.04-6.85L668.04-6.85Q670.14-5.2 672.04-4.35 673.94-3.5 675.79-3.5L675.79-3.5Q677.99-3.5 679.59-4.98 681.19-6.45 681.59-8.85L681.59-8.85ZM710.23-6.7L712.33-3.5Q707.53 0.7 701.38 0.7L701.38 0.7Q698.03 0.7 695.03-0.7 692.03-2.1 690.18-4.8 688.33-7.5 688.33-11.2L688.33-11.2Q688.33-15.15 690.23-18.1 692.13-21.05 695.18-22.63 698.23-24.2 701.58-24.2L701.58-24.2Q704.53-24.2 706.86-23.25 709.18-22.3 710.51-20.6 711.83-18.9 711.83-16.7L711.83-16.7Q711.83-13.4 709.01-11.58 706.18-9.75 702.23-9.75L702.23-9.75Q699.68-9.75 697.48-10.28 695.28-10.8 693.03-11.8L693.03-11.8 693.03-11.35Q693.03-9 694.16-7.2 695.28-5.4 697.18-4.45 699.08-3.5 701.33-3.5L701.33-3.5Q706.43-3.5 710.23-6.7L710.23-6.7ZM701.93-20.3Q699.23-20.3 696.91-18.75 694.58-17.2 693.58-14.55L693.58-14.55Q697.38-13.2 701.18-13.2L701.18-13.2Q703.68-13.2 705.31-14.13 706.93-15.05 706.93-16.7L706.93-16.7Q706.93-18.3 705.53-19.3 704.13-20.3 701.93-20.3L701.93-20.3ZM720.63 0.65Q718.93 0.65 717.73-0.28 716.53-1.2 716.53-2.6L716.53-2.6Q716.53-4.1 717.73-5.05 718.93-6 720.63-6L720.63-6Q722.48-6 723.66-5.05 724.83-4.1 724.83-2.6L724.83-2.6Q724.83-1.2 723.66-0.28 722.48 0.65 720.63 0.65L720.63 0.65ZM780.73-6.25L783.28-2.9Q780.13 0.7 775.98 0.7L775.98 0.7Q771.63 0.7 768.65-2.45 765.68-5.6 763.83-12.15L763.83-12.15 763.03-14.65 755.88-14.65 755.88-4.15 762.18-4.15 762.18 0 744.28 0 744.28-4.1 750.73-4.1 750.73-30.15 744.28-30.15 744.28-34.3 764.18-34.3Q770.03-34.3 773.43-31.65 776.83-29 776.83-24.45L776.83-24.45Q776.83-20.7 774.4-18.13 771.98-15.55 767.58-14.9L767.58-14.9 768.48-12.45Q770.03-8.05 771.93-6.05 773.83-4.05 776.23-4.05L776.23-4.05Q777.73-4.05 778.78-4.65 779.83-5.25 780.73-6.25L780.73-6.25ZM755.88-30.15L755.88-18.55 764.33-18.55Q767.53-18.55 769.63-20.13 771.73-21.7 771.73-24.45L771.73-24.45Q771.73-27.1 769.65-28.63 767.58-30.15 764.33-30.15L764.33-30.15 755.88-30.15ZM805.67-6.7L807.77-3.5Q802.97 0.7 796.82 0.7L796.82 0.7Q793.47 0.7 790.47-0.7 787.47-2.1 785.62-4.8 783.77-7.5 783.77-11.2L783.77-11.2Q783.77-15.15 785.67-18.1 787.57-21.05 790.62-22.63 793.67-24.2 797.02-24.2L797.02-24.2Q799.97-24.2 802.3-23.25 804.62-22.3 805.95-20.6 807.27-18.9 807.27-16.7L807.27-16.7Q807.27-13.4 804.45-11.58 801.62-9.75 797.67-9.75L797.67-9.75Q795.12-9.75 792.92-10.28 790.72-10.8 788.47-11.8L788.47-11.8 788.47-11.35Q788.47-9 789.6-7.2 790.72-5.4 792.62-4.45 794.52-3.5 796.77-3.5L796.77-3.5Q801.87-3.5 805.67-6.7L805.67-6.7ZM797.37-20.3Q794.67-20.3 792.35-18.75 790.02-17.2 789.02-14.55L789.02-14.55Q792.82-13.2 796.62-13.2L796.62-13.2Q799.12-13.2 800.75-14.13 802.37-15.05 802.37-16.7L802.37-16.7Q802.37-18.3 800.97-19.3 799.57-20.3 797.37-20.3L797.37-20.3ZM829.92-24.2Q832.87-24.2 835.37-22.65 837.87-21.1 839.37-18.32 840.87-15.55 840.87-12L840.87-12Q840.87-8.35 839.25-5.45 837.62-2.55 834.82-0.93 832.02 0.7 828.62 0.7L828.62 0.7Q824.17 0.7 820.42-2.7L820.42-2.7 820.42 6.95 825.87 6.95 825.87 10.9 810.37 10.9 810.37 6.95 815.62 6.95 815.62-19.6 810.37-19.6 810.37-23.55 820.42-23.55 820.42-19Q822.37-21.4 824.87-22.8 827.37-24.2 829.92-24.2L829.92-24.2ZM827.57-3.5Q829.92-3.5 831.8-4.58 833.67-5.65 834.72-7.6 835.77-9.55 835.77-12.05L835.77-12.05Q835.77-15.6 833.75-17.82 831.72-20.05 828.57-20.05L828.57-20.05Q826.42-20.05 824.32-18.75 822.22-17.45 820.42-15.15L820.42-15.15 820.42-6.4Q824.02-3.5 827.57-3.5L827.57-3.5ZM866.82-6.7L868.92-3.5Q864.12 0.7 857.97 0.7L857.97 0.7Q854.62 0.7 851.62-0.7 848.62-2.1 846.77-4.8 844.92-7.5 844.92-11.2L844.92-11.2Q844.92-15.15 846.82-18.1 848.72-21.05 851.77-22.63 854.82-24.2 858.17-24.2L858.17-24.2Q861.12-24.2 863.44-23.25 865.77-22.3 867.09-20.6 868.42-18.9 868.42-16.7L868.42-16.7Q868.42-13.4 865.59-11.58 862.77-9.75 858.82-9.75L858.82-9.75Q856.27-9.75 854.07-10.28 851.87-10.8 849.62-11.8L849.62-11.8 849.62-11.35Q849.62-9 850.74-7.2 851.87-5.4 853.77-4.45 855.67-3.5 857.92-3.5L857.92-3.5Q863.02-3.5 866.82-6.7L866.82-6.7ZM858.52-20.3Q855.82-20.3 853.49-18.75 851.17-17.2 850.17-14.55L850.17-14.55Q853.97-13.2 857.77-13.2L857.77-13.2Q860.27-13.2 861.89-14.13 863.52-15.05 863.52-16.7L863.52-16.7Q863.52-18.3 862.12-19.3 860.72-20.3 858.52-20.3L858.52-20.3ZM898.77-4.15L899.77-0.6Q898.12 0.4 895.92 0.4L895.92 0.4Q894.07 0.4 892.79-0.68 891.52-1.75 891.02-3.75L891.02-3.75Q886.02 0.7 881.12 0.7L881.12 0.7Q877.67 0.7 875.27-1.25 872.87-3.2 872.87-6.7L872.87-6.7Q872.87-9.1 874.22-10.88 875.57-12.65 877.84-13.58 880.12-14.5 882.77-14.5L882.77-14.5Q885.02-14.5 886.92-14.08 888.82-13.65 890.82-12.85L890.82-12.85 890.82-15.05Q890.82-17.6 889.12-18.8 887.42-20 884.67-20L884.67-20Q880.77-20 875.27-17.85L875.27-17.85 874.27-21.65Q880.17-24.15 885.27-24.15L885.27-24.15Q890.12-24.15 892.79-21.78 895.47-19.4 895.47-14.85L895.47-14.85 895.47-6.2Q895.47-3.75 897.22-3.75L897.22-3.75Q897.97-3.75 898.77-4.15L898.77-4.15ZM877.72-6.95Q877.72-5.25 879.07-4.33 880.42-3.4 882.37-3.4L882.37-3.4Q884.07-3.4 886.27-4.3 888.47-5.2 890.82-6.95L890.82-6.95 890.82-9.6Q887.42-10.8 883.62-10.9L883.62-10.9Q881.17-10.9 879.44-9.88 877.72-8.85 877.72-6.95L877.72-6.95ZM919.91-5.35L921.61-1.65Q919.76-0.55 917.99 0.05 916.21 0.65 913.91 0.65L913.91 0.65Q910.06 0.65 907.79-1.78 905.51-4.2 905.51-8.7L905.51-8.7 905.51-19.6 900.26-19.6 900.26-23.55 905.51-23.55 905.51-30.1 910.41-30.1 910.41-23.55 918.21-23.55 918.21-19.6 910.41-19.6 910.41-8.65Q910.41-6.1 911.56-4.9 912.71-3.7 914.66-3.7L914.66-3.7Q916.06-3.7 917.31-4.13 918.56-4.55 919.91-5.35L919.91-5.35Z" opacity="1" transform="matrix(1,0,0,1,0,0)" fill="#ffffff" class="slogan-text-1" data-fill-palette-color="secondary" id="text-1"></path></svg></g></svg></g></svg></g></svg></g></svg></g><defs></defs></svg><rect width="395.52" height="107.03195383394524" fill="none" stroke="none" visibility="hidden"></rect></g></svg></g></svg>