<svg xmlns="http://www.w3.org/2000/svg" version="1.1" xmlns:xlink="http://www.w3.org/1999/xlink" xmlns:svgjs="http://svgjs.dev/svgjs" width="2000" height="393" viewBox="0 0 2000 393"><g transform="matrix(1,0,0,1,-1.2119842644573282,1.1385153536044754)"><svg viewBox="0 0 396 78" data-background-color="#000000" preserveAspectRatio="xMidYMid meet" height="393" width="2000" xmlns="http://www.w3.org/2000/svg" xmlns:xlink="http://www.w3.org/1999/xlink"><g id="tight-bounds" transform="matrix(1,0,0,1,0.24002711563747425,-0.22596487934134757)"><svg viewBox="0 0 395.52 78.4519297586827" height="78.4519297586827" width="395.52"><g><svg viewBox="0 0 542.3059050704275 107.56711360311495" height="78.4519297586827" width="395.52"><g><rect width="6.96346238589501" height="107.56711360311495" x="121.59348355915286" y="0" fill="#ffffff" opacity="1" stroke-width="0" stroke="transparent" fill-opacity="1" class="rect-r$-0" data-fill-palette-color="primary" rx="1%" id="r$-0" data-palette-color="#ffffff"></rect></g><g transform="matrix(1,0,0,1,146.78590507042748,0.2675798845848547)"><svg viewBox="0 0 395.52 107.03195383394524" height="107.03195383394524" width="395.52"><g id="textblocktransform"><svg viewBox="0 0 395.52 107.03195383394524" height="107.03195383394524" width="395.52" id="textblock"><g><svg viewBox="0 0 395.52 77.21648590021691" height="77.21648590021691" width="395.52"><g transform="matrix(1,0,0,1,0,0)"><svg width="395.52" viewBox="4 -40 207.44 40.5" height="77.21648590021691" data-palette-color="#ffffff"><path d="M14.85-5L21.65-5Q23.5-5 24.25-6.05 25-7.1 25-8.4L25-8.4 25-31.3Q25-32.55 24.25-33.6 23.5-34.65 21.65-34.65L21.65-34.65 9.95-34.65 9.9-2.05Q9.9-0.95 9.05-0.3 8.2 0.35 6.95 0.35L6.95 0.35Q4 0.35 4-2.05L4-2.05 4-36.7Q4-38.5 4.93-39.1 5.85-39.7 7.15-39.7L7.15-39.7 22.9-39.7Q24.2-39.7 25.6-39.15 27-38.6 28.3-37.75L28.3-37.75 28.25-37.75Q29.55-36.8 30.25-35.27 30.95-33.75 30.95-31.75L30.95-31.75 30.95-8Q30.95-3.95 28.25-1.95L28.25-1.95Q26.95-1 25.58-0.48 24.2 0.05 22.9 0.05L22.9 0.05 14.5 0.05Q13.65 0.05 13.18-0.65 12.7-1.35 12.7-2.5L12.7-2.5Q12.7-5 14.85-5L14.85-5ZM60 0.05L41.7 0.05Q39.85 0.05 39.2-0.9 38.55-1.85 38.55-3L38.55-3 38.55-36.7Q38.55-37.85 39.2-38.78 39.85-39.7 41.7-39.7L41.7-39.7 59.1-39.7Q60.95-39.7 61.05-37.2L61.05-37.2Q61.15-34.65 59.1-34.65L59.1-34.65 44.45-34.65 44.45-5 60-5Q61.85-5 61.9-2.55L61.9-2.55Q62 0.05 60 0.05L60 0.05ZM57.25-20.65L57.25-20.65Q57.25-18.9 56.02-17.7 54.8-16.5 53.05-16.5L53.05-16.5Q51.35-16.5 50.15-17.7 48.95-18.9 48.95-20.65L48.95-20.65Q48.95-22.4 50.15-23.6 51.35-24.8 53.05-24.8L53.05-24.8Q54.8-24.8 56.02-23.6 57.25-22.4 57.25-20.65ZM90.9-0.6L81.45-16.45 77.59-16.45Q76.75-16.45 76.27-17.13 75.8-17.8 75.8-18.95L75.8-18.95Q75.8-21.5 77.9-21.5L77.9-21.5 83.75-21.5Q85.59-21.5 86.34-22.55 87.09-23.6 87.09-24.85L87.09-24.85 87.09-31.3Q87.09-32.55 86.34-33.6 85.59-34.65 83.75-34.65L83.75-34.65 73.2-34.65 73.2-2.05Q73.2 0.35 70.25 0.35L70.25 0.35Q67.3 0.35 67.3-2.05L67.3-2.05 67.3-36.7Q67.3-38.5 68.22-39.1 69.14-39.7 70.45-39.7L70.45-39.7 85-39.7Q86.3-39.7 87.7-39.15 89.09-38.6 90.4-37.75L90.4-37.75 90.34-37.75Q91.65-36.8 92.34-35.27 93.05-33.75 93.05-31.75L93.05-31.75 93.05-24.45Q93.05-20.4 90.34-18.4L90.34-18.4Q89.8-18 89.17-17.65 88.55-17.3 87.9-16.95L87.9-16.95 95.9-3.75Q96.05-3.5 96.19-3.1 96.34-2.7 96.34-2.45L96.34-2.45Q96.34-1.25 94.65-0.15L94.65-0.15 94.65-0.2Q93.5 0.5 92.7 0.5L92.7 0.5Q91.55 0.5 90.84-0.65L90.84-0.65 90.9-0.6ZM124.59-0.6L115.14-16.45 111.29-16.45Q110.44-16.45 109.97-17.13 109.49-17.8 109.49-18.95L109.49-18.95Q109.49-21.5 111.59-21.5L111.59-21.5 117.44-21.5Q119.29-21.5 120.04-22.55 120.79-23.6 120.79-24.85L120.79-24.85 120.79-31.3Q120.79-32.55 120.04-33.6 119.29-34.65 117.44-34.65L117.44-34.65 106.89-34.65 106.89-2.05Q106.89 0.35 103.94 0.35L103.94 0.35Q100.99 0.35 100.99-2.05L100.99-2.05 100.99-36.7Q100.99-38.5 101.92-39.1 102.84-39.7 104.14-39.7L104.14-39.7 118.69-39.7Q119.99-39.7 121.39-39.15 122.79-38.6 124.09-37.75L124.09-37.75 124.04-37.75Q125.34-36.8 126.04-35.27 126.74-33.75 126.74-31.75L126.74-31.75 126.74-24.45Q126.74-20.4 124.04-18.4L124.04-18.4Q123.49-18 122.87-17.65 122.24-17.3 121.59-16.95L121.59-16.95 129.59-3.75Q129.74-3.5 129.89-3.1 130.04-2.7 130.04-2.45L130.04-2.45Q130.04-1.25 128.34-0.15L128.34-0.15 128.34-0.2Q127.19 0.5 126.39 0.5L126.39 0.5Q125.24 0.5 124.54-0.65L124.54-0.65 124.59-0.6ZM140.84-37.55L140.84-2.1Q140.84 0.3 137.84 0.3L137.84 0.3Q134.89 0.3 134.89-2.1L134.89-2.1 134.89-37.55Q134.89-39.95 137.84-39.95L137.84-39.95Q140.84-39.95 140.84-37.55L140.84-37.55ZM175.79-11.3L175.79-8Q175.79-3.95 173.09-1.95L173.09-1.95Q171.79-1 170.41-0.48 169.04 0.05 167.74 0.05L167.74 0.05 156.84 0.05Q155.54 0.05 154.16-0.48 152.79-1 151.49-1.95L151.49-1.95Q150.19-2.95 149.49-4.42 148.79-5.9 148.79-8L148.79-8 148.79-31.75Q148.79-33.75 149.49-35.27 150.19-36.8 151.49-37.75L151.49-37.75 151.44-37.75Q152.74-38.6 154.14-39.15 155.54-39.7 156.84-39.7L156.84-39.7 167.74-39.7Q169.04-39.7 170.44-39.15 171.84-38.6 173.14-37.75L173.14-37.75 173.09-37.75Q174.39-36.8 175.09-35.27 175.79-33.75 175.79-31.75L175.79-31.75 175.79-28.3Q175.79-25.9 172.79-25.9L172.79-25.9Q169.84-25.9 169.84-28.3L169.84-28.3 169.84-31.3Q169.84-32.55 169.09-33.6 168.34-34.65 166.49-34.65L166.49-34.65 158.09-34.65Q156.24-34.65 155.49-33.6 154.74-32.55 154.74-31.3L154.74-31.3 154.74-8.4Q154.74-7.1 155.49-6.05 156.24-5 158.09-5L158.09-5 166.49-5Q168.34-5 169.09-6.05 169.84-7.1 169.84-8.4L169.84-8.4 169.84-11.3Q169.84-13.65 172.79-13.65L172.79-13.65Q175.79-13.65 175.79-11.3L175.79-11.3ZM188.94-21.2L204.19-39.1Q204.94-40 205.89-40L205.89-40Q206.94-40 208.04-39.05L208.04-39.05Q208.59-38.5 208.96-37.95 209.34-37.4 209.34-36.85L209.34-36.85Q209.34-35.95 208.69-35.3L208.69-35.3 201.99-27.5 188.94-12.15 188.94-2.1Q188.94 0.3 185.94 0.3L185.94 0.3Q182.99 0.3 182.99-2.1L182.99-2.1 182.99-37.55Q182.99-39.95 185.94-39.95L185.94-39.95Q188.94-39.95 188.94-37.55L188.94-37.55 188.94-21.2ZM206.59-1.5L197.09-15.35Q196.59-16.05 196.59-17.05L196.59-17.05Q196.59-18.55 197.84-19.45L197.84-19.45 197.79-19.45Q198.79-20.15 199.79-20.15L199.79-20.15Q200.74-20.15 201.39-19.05L201.39-19.05 211.04-4.95 210.99-5Q211.44-4.3 211.44-3.5L211.44-3.5Q211.44-2.2 210.14-1.2L210.14-1.2 210.19-1.2Q209.64-0.85 209.14-0.65 208.64-0.45 208.24-0.45L208.24-0.45Q207.84-0.45 207.41-0.75 206.99-1.05 206.59-1.5L206.59-1.5Z" opacity="1" transform="matrix(1,0,0,1,0,0)" fill="#ffffff" class="wordmark-text-0" data-fill-palette-color="primary" id="text-0"></path></svg></g></svg></g><g transform="matrix(1,0,0,1,0,95.44544502559651)"><svg viewBox="0 0 232.209792 11.58650880834873" height="11.58650880834873" width="232.209792"><g transform="matrix(1,0,0,1,0,0)"><svg width="232.209792" viewBox="1.8 -35 919.8100000000001 45.9" height="11.58650880834873" data-palette-color="#ffffff"><path d="M19.9-30.15L13.4-30.15 13.4-4.15 19.9-4.15 19.9 0 1.8 0 1.8-4.15 8.25-4.15 8.25-30.15 1.8-30.15 1.8-34.3 19.9-34.3 19.9-30.15ZM52.65-3.95L57.35-3.95 57.35 0 43.45 0 43.45-3.95 47.8-3.95 47.8-13.7Q47.8-16.45 46.42-18.03 45.05-19.6 42.5-19.6L42.5-19.6Q38.15-19.6 33.3-14.1L33.3-14.1 33.3-3.95 37.65-3.95 37.65 0 23.1 0 23.1-3.95 28.4-3.95 28.4-19.6 23.1-19.6 23.1-23.55 33.3-23.55 33.3-18Q36.1-21.1 38.67-22.63 41.25-24.15 44.2-24.15L44.2-24.15Q48.25-24.15 50.45-21.55 52.65-18.95 52.65-13.85L52.65-13.85 52.65-3.95ZM88.34-23.55L88.34-19.6 84.44-19.6 74 0.65 71.5 0.65 60.84-19.6 57.24-19.6 57.24-23.55 70-23.55 70-19.95 66.05-19.95 73.25-5.45 80.3-19.95 76.25-19.95 76.25-23.55 88.34-23.55ZM111.64-6.7L113.74-3.5Q108.94 0.7 102.79 0.7L102.79 0.7Q99.44 0.7 96.44-0.7 93.44-2.1 91.59-4.8 89.74-7.5 89.74-11.2L89.74-11.2Q89.74-15.15 91.64-18.1 93.54-21.05 96.59-22.63 99.64-24.2 102.99-24.2L102.99-24.2Q105.94-24.2 108.27-23.25 110.59-22.3 111.92-20.6 113.24-18.9 113.24-16.7L113.24-16.7Q113.24-13.4 110.42-11.58 107.59-9.75 103.64-9.75L103.64-9.75Q101.09-9.75 98.89-10.28 96.69-10.8 94.44-11.8L94.44-11.8 94.44-11.35Q94.44-9 95.57-7.2 96.69-5.4 98.59-4.45 100.49-3.5 102.74-3.5L102.74-3.5Q107.84-3.5 111.64-6.7L111.64-6.7ZM103.34-20.3Q100.64-20.3 98.32-18.75 95.99-17.2 94.99-14.55L94.99-14.55Q98.79-13.2 102.59-13.2L102.59-13.2Q105.09-13.2 106.72-14.13 108.34-15.05 108.34-16.7L108.34-16.7Q108.34-18.3 106.94-19.3 105.54-20.3 103.34-20.3L103.34-20.3ZM146.64-3.95L151.34-3.95 151.34 0 137.44 0 137.44-3.95 141.79-3.95 141.79-13.7Q141.79-16.45 140.41-18.03 139.04-19.6 136.49-19.6L136.49-19.6Q132.14-19.6 127.29-14.1L127.29-14.1 127.29-3.95 131.64-3.95 131.64 0 117.09 0 117.09-3.95 122.39-3.95 122.39-19.6 117.09-19.6 117.09-23.55 127.29-23.55 127.29-18Q130.09-21.1 132.66-22.63 135.24-24.15 138.19-24.15L138.19-24.15Q142.24-24.15 144.44-21.55 146.64-18.95 146.64-13.85L146.64-13.85 146.64-3.95ZM171.49-5.35L173.19-1.65Q171.34-0.55 169.56 0.05 167.79 0.65 165.49 0.65L165.49 0.65Q161.64 0.65 159.36-1.78 157.09-4.2 157.09-8.7L157.09-8.7 157.09-19.6 151.84-19.6 151.84-23.55 157.09-23.55 157.09-30.1 161.99-30.1 161.99-23.55 169.79-23.55 169.79-19.6 161.99-19.6 161.99-8.65Q161.99-6.1 163.14-4.9 164.29-3.7 166.24-3.7L166.24-3.7Q167.64-3.7 168.89-4.13 170.14-4.55 171.49-5.35L171.49-5.35ZM179.49 0.65Q177.78 0.65 176.59-0.28 175.38-1.2 175.38-2.6L175.38-2.6Q175.38-4.1 176.59-5.05 177.78-6 179.49-6L179.49-6Q181.34-6 182.51-5.05 183.69-4.1 183.69-2.6L183.69-2.6Q183.69-1.2 182.51-0.28 181.34 0.65 179.49 0.65L179.49 0.65ZM233.43-10.15L236.78-7.35Q234.33-3.75 230.56-1.55 226.78 0.65 221.63 0.65L221.63 0.65Q216.73 0.65 212.66-1.63 208.58-3.9 206.23-7.95 203.88-12 203.88-17.1L203.88-17.1Q203.88-22.35 206.18-26.43 208.48-30.5 212.33-32.75 216.18-35 220.63-35L220.63-35Q224.23-35 227.01-33.7 229.78-32.4 231.68-30.05L231.68-30.05 231.73-34.3 236.38-34.3 236.38-23.15 233.08-22.85Q229.48-30.85 221.38-30.85L221.38-30.85Q218.13-30.85 215.36-29.18 212.58-27.5 210.91-24.38 209.23-21.25 209.23-17.15L209.23-17.15Q209.23-13.25 210.88-10.18 212.53-7.1 215.36-5.35 218.18-3.6 221.63-3.6L221.63-3.6Q225.68-3.6 228.51-5.35 231.33-7.1 233.43-10.15L233.43-10.15ZM253.68 0.7Q250.23 0.7 247.23-0.85 244.23-2.4 242.45-5.25 240.68-8.1 240.68-11.75L240.68-11.75Q240.68-15.45 242.45-18.28 244.23-21.1 247.23-22.65 250.23-24.2 253.68-24.2L253.68-24.2Q257.08-24.2 260.05-22.65 263.03-21.1 264.83-18.25 266.63-15.4 266.63-11.75L266.63-11.75Q266.63-8.1 264.88-5.25 263.13-2.4 260.15-0.85 257.18 0.7 253.68 0.7L253.68 0.7ZM253.68-3.25Q255.93-3.25 257.73-4.3 259.53-5.35 260.55-7.28 261.58-9.2 261.58-11.75L261.58-11.75Q261.58-14.3 260.55-16.23 259.53-18.15 257.73-19.2 255.93-20.25 253.68-20.25L253.68-20.25Q250.23-20.25 248-17.93 245.78-15.6 245.78-11.75L245.78-11.75Q245.78-7.9 248-5.58 250.23-3.25 253.68-3.25L253.68-3.25ZM299.07-4.05L300.13-0.45Q299.43-0.05 298.43 0.23 297.43 0.5 296.32 0.5L296.32 0.5Q294.48 0.5 293.13-0.48 291.78-1.45 291.28-3.3L291.28-3.3Q289.28-1.5 287.05-0.4 284.82 0.7 282.13 0.7L282.13 0.7Q279.07 0.7 276.45-0.85 273.82-2.4 272.28-5.18 270.73-7.95 270.73-11.45L270.73-11.45Q270.73-15.1 272.35-18.03 273.98-20.95 276.78-22.58 279.57-24.2 282.98-24.2L282.98-24.2Q287.32-24.2 290.98-21L290.98-21 290.98-30.35 285.68-30.35 285.68-34.3 295.78-34.3 295.78-6.05Q295.78-3.65 297.43-3.65L297.43-3.65Q298.53-3.65 299.07-4.05L299.07-4.05ZM275.82-11.5Q275.82-7.9 277.85-5.7 279.88-3.5 283.13-3.5L283.13-3.5Q286.88-3.5 290.98-6.9L290.98-6.9 290.98-17.25Q287.48-20.05 284.07-20.05L284.07-20.05Q281.73-20.05 279.82-18.95 277.93-17.85 276.88-15.9 275.82-13.95 275.82-11.5L275.82-11.5ZM324.97-6.7L327.07-3.5Q322.27 0.7 316.12 0.7L316.12 0.7Q312.77 0.7 309.77-0.7 306.77-2.1 304.92-4.8 303.07-7.5 303.07-11.2L303.07-11.2Q303.07-15.15 304.97-18.1 306.87-21.05 309.92-22.63 312.97-24.2 316.32-24.2L316.32-24.2Q319.27-24.2 321.6-23.25 323.92-22.3 325.25-20.6 326.57-18.9 326.57-16.7L326.57-16.7Q326.57-13.4 323.75-11.58 320.92-9.75 316.97-9.75L316.97-9.75Q314.42-9.75 312.22-10.28 310.02-10.8 307.77-11.8L307.77-11.8 307.77-11.35Q307.77-9 308.9-7.2 310.02-5.4 311.92-4.45 313.82-3.5 316.07-3.5L316.07-3.5Q321.17-3.5 324.97-6.7L324.97-6.7ZM316.67-20.3Q313.97-20.3 311.65-18.75 309.32-17.2 308.32-14.55L308.32-14.55Q312.12-13.2 315.92-13.2L315.92-13.2Q318.42-13.2 320.05-14.13 321.67-15.05 321.67-16.7L321.67-16.7Q321.67-18.3 320.27-19.3 318.87-20.3 316.67-20.3L316.67-20.3ZM335.37 0.65Q333.67 0.65 332.47-0.28 331.27-1.2 331.27-2.6L331.27-2.6Q331.27-4.1 332.47-5.05 333.67-6 335.37-6L335.37-6Q337.22-6 338.4-5.05 339.57-4.1 339.57-2.6L339.57-2.6Q339.57-1.2 338.4-0.28 337.22 0.65 335.37 0.65L335.37 0.65ZM395.47-6.25L398.02-2.9Q394.87 0.7 390.72 0.7L390.72 0.7Q386.37 0.7 383.39-2.45 380.42-5.6 378.57-12.15L378.57-12.15 377.77-14.65 370.62-14.65 370.62-4.15 376.92-4.15 376.92 0 359.02 0 359.02-4.1 365.47-4.1 365.47-30.15 359.02-30.15 359.02-34.3 378.92-34.3Q384.77-34.3 388.17-31.65 391.57-29 391.57-24.45L391.57-24.45Q391.57-20.7 389.14-18.13 386.72-15.55 382.32-14.9L382.32-14.9 383.22-12.45Q384.77-8.05 386.67-6.05 388.57-4.05 390.97-4.05L390.97-4.05Q392.47-4.05 393.52-4.65 394.57-5.25 395.47-6.25L395.47-6.25ZM370.62-30.15L370.62-18.55 379.07-18.55Q382.27-18.55 384.37-20.13 386.47-21.7 386.47-24.45L386.47-24.45Q386.47-27.1 384.39-28.63 382.32-30.15 379.07-30.15L379.07-30.15 370.62-30.15ZM420.41-6.7L422.51-3.5Q417.71 0.7 411.56 0.7L411.56 0.7Q408.21 0.7 405.21-0.7 402.21-2.1 400.36-4.8 398.51-7.5 398.51-11.2L398.51-11.2Q398.51-15.15 400.41-18.1 402.31-21.05 405.36-22.63 408.41-24.2 411.76-24.2L411.76-24.2Q414.71-24.2 417.04-23.25 419.36-22.3 420.69-20.6 422.01-18.9 422.01-16.7L422.01-16.7Q422.01-13.4 419.19-11.58 416.36-9.75 412.41-9.75L412.41-9.75Q409.86-9.75 407.66-10.28 405.46-10.8 403.21-11.8L403.21-11.8 403.21-11.35Q403.21-9 404.34-7.2 405.46-5.4 407.36-4.45 409.26-3.5 411.51-3.5L411.51-3.5Q416.61-3.5 420.41-6.7L420.41-6.7ZM412.11-20.3Q409.41-20.3 407.09-18.75 404.76-17.2 403.76-14.55L403.76-14.55Q407.56-13.2 411.36-13.2L411.36-13.2Q413.86-13.2 415.49-14.13 417.11-15.05 417.11-16.7L417.11-16.7Q417.11-18.3 415.71-19.3 414.31-20.3 412.11-20.3L412.11-20.3ZM454.56-23.55L454.56-19.6 450.66-19.6 440.21 0.65 437.71 0.65 427.06-19.6 423.46-19.6 423.46-23.55 436.21-23.55 436.21-19.95 432.26-19.95 439.46-5.45 446.51-19.95 442.46-19.95 442.46-23.55 454.56-23.55ZM468.96 0.7Q465.51 0.7 462.51-0.85 459.51-2.4 457.73-5.25 455.96-8.1 455.96-11.75L455.96-11.75Q455.96-15.45 457.73-18.28 459.51-21.1 462.51-22.65 465.51-24.2 468.96-24.2L468.96-24.2Q472.36-24.2 475.33-22.65 478.31-21.1 480.11-18.25 481.91-15.4 481.91-11.75L481.91-11.75Q481.91-8.1 480.16-5.25 478.41-2.4 475.43-0.85 472.46 0.7 468.96 0.7L468.96 0.7ZM468.96-3.25Q471.21-3.25 473.01-4.3 474.81-5.35 475.83-7.28 476.86-9.2 476.86-11.75L476.86-11.75Q476.86-14.3 475.83-16.23 474.81-18.15 473.01-19.2 471.21-20.25 468.96-20.25L468.96-20.25Q465.51-20.25 463.28-17.93 461.06-15.6 461.06-11.75L461.06-11.75Q461.06-7.9 463.28-5.58 465.51-3.25 468.96-3.25L468.96-3.25ZM494.91-3.95L500.36-3.95 500.36 0 484.75 0 484.75-3.95 490-3.95 490-30.35 484.75-30.35 484.75-34.3 494.91-34.3 494.91-3.95ZM532.45-4L533.55-0.45Q531.85 0.5 529.8 0.5L529.8 0.5Q527.45 0.5 526-0.9 524.55-2.3 524.35-4.9L524.35-4.9Q521.85-2.15 519.45-0.75 517.05 0.65 514.4 0.65L514.4 0.65Q510.5 0.65 508.38-1.95 506.25-4.55 506.25-9.6L506.25-9.6 506.25-19.6 501.55-19.6 501.55-23.55 511.15-23.55 511.15-9.75Q511.15-6.95 512.33-5.43 513.5-3.9 516.1-3.9L516.1-3.9Q519.95-3.9 524.3-8.75L524.3-8.75 524.3-19.6 520-19.6 520-23.55 529.2-23.55 529.2-6.05Q529.2-3.6 530.9-3.6L530.9-3.6Q531.9-3.6 532.45-4L532.45-4ZM554.4-5.35L556.1-1.65Q554.25-0.55 552.47 0.05 550.7 0.65 548.4 0.65L548.4 0.65Q544.55 0.65 542.27-1.78 540-4.2 540-8.7L540-8.7 540-19.6 534.75-19.6 534.75-23.55 540-23.55 540-30.1 544.9-30.1 544.9-23.55 552.7-23.55 552.7-19.6 544.9-19.6 544.9-8.65Q544.9-6.1 546.05-4.9 547.2-3.7 549.15-3.7L549.15-3.7Q550.55-3.7 551.8-4.13 553.05-4.55 554.4-5.35L554.4-5.35ZM564.8-28.9Q563.2-28.9 562.1-29.75 561-30.6 561-31.9L561-31.9Q561-33.25 562.1-34.13 563.2-35 564.8-35L564.8-35Q566.5-35 567.6-34.13 568.7-33.25 568.7-31.9L568.7-31.9Q568.7-30.6 567.6-29.75 566.5-28.9 564.8-28.9L564.8-28.9ZM567.8-3.95L573.15-3.95 573.15 0 557.6 0 557.6-3.95 562.9-3.95 562.9-19.6 557.6-19.6 557.6-23.55 567.8-23.55 567.8-3.95ZM588.69 0.7Q585.24 0.7 582.24-0.85 579.24-2.4 577.47-5.25 575.69-8.1 575.69-11.75L575.69-11.75Q575.69-15.45 577.47-18.28 579.24-21.1 582.24-22.65 585.24-24.2 588.69-24.2L588.69-24.2Q592.09-24.2 595.07-22.65 598.04-21.1 599.84-18.25 601.64-15.4 601.64-11.75L601.64-11.75Q601.64-8.1 599.89-5.25 598.14-2.4 595.17-0.85 592.19 0.7 588.69 0.7L588.69 0.7ZM588.69-3.25Q590.94-3.25 592.74-4.3 594.54-5.35 595.57-7.28 596.59-9.2 596.59-11.75L596.59-11.75Q596.59-14.3 595.57-16.23 594.54-18.15 592.74-19.2 590.94-20.25 588.69-20.25L588.69-20.25Q585.24-20.25 583.02-17.93 580.79-15.6 580.79-11.75L580.79-11.75Q580.79-7.9 583.02-5.58 585.24-3.25 588.69-3.25L588.69-3.25ZM634.69-3.95L639.39-3.95 639.39 0 625.49 0 625.49-3.95 629.84-3.95 629.84-13.7Q629.84-16.45 628.47-18.03 627.09-19.6 624.54-19.6L624.54-19.6Q620.19-19.6 615.34-14.1L615.34-14.1 615.34-3.95 619.69-3.95 619.69 0 605.14 0 605.14-3.95 610.44-3.95 610.44-19.6 605.14-19.6 605.14-23.55 615.34-23.55 615.34-18Q618.14-21.1 620.72-22.63 623.29-24.15 626.24-24.15L626.24-24.15Q630.29-24.15 632.49-21.55 634.69-18.95 634.69-13.85L634.69-13.85 634.69-3.95ZM648.74-28.9Q647.14-28.9 646.04-29.75 644.94-30.6 644.94-31.9L644.94-31.9Q644.94-33.25 646.04-34.13 647.14-35 648.74-35L648.74-35Q650.44-35 651.54-34.13 652.64-33.25 652.64-31.9L652.64-31.9Q652.64-30.6 651.54-29.75 650.44-28.9 648.74-28.9L648.74-28.9ZM651.74-3.95L657.09-3.95 657.09 0 641.54 0 641.54-3.95 646.84-3.95 646.84-19.6 641.54-19.6 641.54-23.55 651.74-23.55 651.74-3.95ZM681.59-8.85L685.79-7.7Q685.49-5.15 684.14-3.25 682.79-1.35 680.74-0.33 678.69 0.7 676.44 0.7L676.44 0.7Q673.54 0.7 671.06-0.63 668.59-1.95 665.89-4.6L665.89-4.6Q664.24-2.35 663.24 0.7L663.24 0.7 659.24-0.85Q660.39-4.55 662.31-7 664.24-9.45 666.29-10.88 668.34-12.3 671.39-13.9L671.39-13.9 672.49-14.5Q674.99-15.85 675.79-16.4L675.79-16.4Q673.44-18.15 670.76-19.07 668.09-20 664.39-20L664.39-20 664.39-14.15 660.24-14.15 660.24-24.2 663.44-24.2Q666.99-24.2 669.54-23.58 672.09-22.95 674.06-21.8 676.04-20.65 678.44-18.65L678.44-18.65Q680.19-20.7 680.84-24.25L680.84-24.25 684.99-22.75Q684.24-19.3 682.71-17 681.19-14.7 679.11-13.28 677.04-11.85 673.84-10.35L673.84-10.35Q671.79-9.35 670.46-8.58 669.14-7.8 668.04-6.85L668.04-6.85Q670.14-5.2 672.04-4.35 673.94-3.5 675.79-3.5L675.79-3.5Q677.99-3.5 679.59-4.98 681.19-6.45 681.59-8.85L681.59-8.85ZM710.23-6.7L712.33-3.5Q707.53 0.7 701.38 0.7L701.38 0.7Q698.03 0.7 695.03-0.7 692.03-2.1 690.18-4.8 688.33-7.5 688.33-11.2L688.33-11.2Q688.33-15.15 690.23-18.1 692.13-21.05 695.18-22.63 698.23-24.2 701.58-24.2L701.58-24.2Q704.53-24.2 706.86-23.25 709.18-22.3 710.51-20.6 711.83-18.9 711.83-16.7L711.83-16.7Q711.83-13.4 709.01-11.58 706.18-9.75 702.23-9.75L702.23-9.75Q699.68-9.75 697.48-10.28 695.28-10.8 693.03-11.8L693.03-11.8 693.03-11.35Q693.03-9 694.16-7.2 695.28-5.4 697.18-4.45 699.08-3.5 701.33-3.5L701.33-3.5Q706.43-3.5 710.23-6.7L710.23-6.7ZM701.93-20.3Q699.23-20.3 696.91-18.75 694.58-17.2 693.58-14.55L693.58-14.55Q697.38-13.2 701.18-13.2L701.18-13.2Q703.68-13.2 705.31-14.13 706.93-15.05 706.93-16.7L706.93-16.7Q706.93-18.3 705.53-19.3 704.13-20.3 701.93-20.3L701.93-20.3ZM720.63 0.65Q718.93 0.65 717.73-0.28 716.53-1.2 716.53-2.6L716.53-2.6Q716.53-4.1 717.73-5.05 718.93-6 720.63-6L720.63-6Q722.48-6 723.66-5.05 724.83-4.1 724.83-2.6L724.83-2.6Q724.83-1.2 723.66-0.28 722.48 0.65 720.63 0.65L720.63 0.65ZM780.73-6.25L783.28-2.9Q780.13 0.7 775.98 0.7L775.98 0.7Q771.63 0.7 768.65-2.45 765.68-5.6 763.83-12.15L763.83-12.15 763.03-14.65 755.88-14.65 755.88-4.15 762.18-4.15 762.18 0 744.28 0 744.28-4.1 750.73-4.1 750.73-30.15 744.28-30.15 744.28-34.3 764.18-34.3Q770.03-34.3 773.43-31.65 776.83-29 776.83-24.45L776.83-24.45Q776.83-20.7 774.4-18.13 771.98-15.55 767.58-14.9L767.58-14.9 768.48-12.45Q770.03-8.05 771.93-6.05 773.83-4.05 776.23-4.05L776.23-4.05Q777.73-4.05 778.78-4.65 779.83-5.25 780.73-6.25L780.73-6.25ZM755.88-30.15L755.88-18.55 764.33-18.55Q767.53-18.55 769.63-20.13 771.73-21.7 771.73-24.45L771.73-24.45Q771.73-27.1 769.65-28.63 767.58-30.15 764.33-30.15L764.33-30.15 755.88-30.15ZM805.67-6.7L807.77-3.5Q802.97 0.7 796.82 0.7L796.82 0.7Q793.47 0.7 790.47-0.7 787.47-2.1 785.62-4.8 783.77-7.5 783.77-11.2L783.77-11.2Q783.77-15.15 785.67-18.1 787.57-21.05 790.62-22.63 793.67-24.2 797.02-24.2L797.02-24.2Q799.97-24.2 802.3-23.25 804.62-22.3 805.95-20.6 807.27-18.9 807.27-16.7L807.27-16.7Q807.27-13.4 804.45-11.58 801.62-9.75 797.67-9.75L797.67-9.75Q795.12-9.75 792.92-10.28 790.72-10.8 788.47-11.8L788.47-11.8 788.47-11.35Q788.47-9 789.6-7.2 790.72-5.4 792.62-4.45 794.52-3.5 796.77-3.5L796.77-3.5Q801.87-3.5 805.67-6.7L805.67-6.7ZM797.37-20.3Q794.67-20.3 792.35-18.75 790.02-17.2 789.02-14.55L789.02-14.55Q792.82-13.2 796.62-13.2L796.62-13.2Q799.12-13.2 800.75-14.13 802.37-15.05 802.37-16.7L802.37-16.7Q802.37-18.3 800.97-19.3 799.57-20.3 797.37-20.3L797.37-20.3ZM829.92-24.2Q832.87-24.2 835.37-22.65 837.87-21.1 839.37-18.32 840.87-15.55 840.87-12L840.87-12Q840.87-8.35 839.25-5.45 837.62-2.55 834.82-0.93 832.02 0.7 828.62 0.7L828.62 0.7Q824.17 0.7 820.42-2.7L820.42-2.7 820.42 6.95 825.87 6.95 825.87 10.9 810.37 10.9 810.37 6.95 815.62 6.95 815.62-19.6 810.37-19.6 810.37-23.55 820.42-23.55 820.42-19Q822.37-21.4 824.87-22.8 827.37-24.2 829.92-24.2L829.92-24.2ZM827.57-3.5Q829.92-3.5 831.8-4.58 833.67-5.65 834.72-7.6 835.77-9.55 835.77-12.05L835.77-12.05Q835.77-15.6 833.75-17.82 831.72-20.05 828.57-20.05L828.57-20.05Q826.42-20.05 824.32-18.75 822.22-17.45 820.42-15.15L820.42-15.15 820.42-6.4Q824.02-3.5 827.57-3.5L827.57-3.5ZM866.82-6.7L868.92-3.5Q864.12 0.7 857.97 0.7L857.97 0.7Q854.62 0.7 851.62-0.7 848.62-2.1 846.77-4.8 844.92-7.5 844.92-11.2L844.92-11.2Q844.92-15.15 846.82-18.1 848.72-21.05 851.77-22.63 854.82-24.2 858.17-24.2L858.17-24.2Q861.12-24.2 863.44-23.25 865.77-22.3 867.09-20.6 868.42-18.9 868.42-16.7L868.42-16.7Q868.42-13.4 865.59-11.58 862.77-9.75 858.82-9.75L858.82-9.75Q856.27-9.75 854.07-10.28 851.87-10.8 849.62-11.8L849.62-11.8 849.62-11.35Q849.62-9 850.74-7.2 851.87-5.4 853.77-4.45 855.67-3.5 857.92-3.5L857.92-3.5Q863.02-3.5 866.82-6.7L866.82-6.7ZM858.52-20.3Q855.82-20.3 853.49-18.75 851.17-17.2 850.17-14.55L850.17-14.55Q853.97-13.2 857.77-13.2L857.77-13.2Q860.27-13.2 861.89-14.13 863.52-15.05 863.52-16.7L863.52-16.7Q863.52-18.3 862.12-19.3 860.72-20.3 858.52-20.3L858.52-20.3ZM898.77-4.15L899.77-0.6Q898.12 0.4 895.92 0.4L895.92 0.4Q894.07 0.4 892.79-0.68 891.52-1.75 891.02-3.75L891.02-3.75Q886.02 0.7 881.12 0.7L881.12 0.7Q877.67 0.7 875.27-1.25 872.87-3.2 872.87-6.7L872.87-6.7Q872.87-9.1 874.22-10.88 875.57-12.65 877.84-13.58 880.12-14.5 882.77-14.5L882.77-14.5Q885.02-14.5 886.92-14.08 888.82-13.65 890.82-12.85L890.82-12.85 890.82-15.05Q890.82-17.6 889.12-18.8 887.42-20 884.67-20L884.67-20Q880.77-20 875.27-17.85L875.27-17.85 874.27-21.65Q880.17-24.15 885.27-24.15L885.27-24.15Q890.12-24.15 892.79-21.78 895.47-19.4 895.47-14.85L895.47-14.85 895.47-6.2Q895.47-3.75 897.22-3.75L897.22-3.75Q897.97-3.75 898.77-4.15L898.77-4.15ZM877.72-6.95Q877.72-5.25 879.07-4.33 880.42-3.4 882.37-3.4L882.37-3.4Q884.07-3.4 886.27-4.3 888.47-5.2 890.82-6.95L890.82-6.95 890.82-9.6Q887.42-10.8 883.62-10.9L883.62-10.9Q881.17-10.9 879.44-9.88 877.72-8.85 877.72-6.95L877.72-6.95ZM919.91-5.35L921.61-1.65Q919.76-0.55 917.99 0.05 916.21 0.65 913.91 0.65L913.91 0.65Q910.06 0.65 907.79-1.78 905.51-4.2 905.51-8.7L905.51-8.7 905.51-19.6 900.26-19.6 900.26-23.55 905.51-23.55 905.51-30.1 910.41-30.1 910.41-23.55 918.21-23.55 918.21-19.6 910.41-19.6 910.41-8.65Q910.41-6.1 911.56-4.9 912.71-3.7 914.66-3.7L914.66-3.7Q916.06-3.7 917.31-4.13 918.56-4.55 919.91-5.35L919.91-5.35Z" opacity="1" transform="matrix(1,0,0,1,0,0)" fill="#ffffff" class="slogan-text-1" data-fill-palette-color="secondary" id="text-1"></path></svg></g></svg></g></svg></g></svg></g><g transform="matrix(1,0,0,1,0,0.2675798845848547)"><svg viewBox="0 0 103.36452443377325 107.03195383394524" height="107.03195383394524" width="103.36452443377325"><g><svg xmlns="http://www.w3.org/2000/svg" xmlns:xlink="http://www.w3.org/1999/xlink" version="1.1" x="0" y="0" viewBox="13.285958590463196 8 103.95422596944084 107.64257830000003" style="enable-background:new 0 0 128 128;" xml:space="preserve" height="107.03195383394524" width="103.36452443377325" class="icon-icon-0" data-fill-palette-color="accent" id="icon-0"><g fill="#ffffff" data-fill-palette-color="accent"><path d="M30.43 35.555c0.357-0.422 0.305-1.053-0.117-1.409-0.424-0.358-1.054-0.305-1.409 0.116-0.221 0.261-0.438 0.522-0.652 0.787-0.349 0.429-0.282 1.059 0.146 1.406 0.186 0.15 0.408 0.224 0.629 0.224 0.291 0 0.58-0.126 0.778-0.37C30.011 36.056 30.219 35.804 30.43 35.555z" fill="#ffffff" data-fill-palette-color="accent"></path><path d="M25.559 40.571c0.167 0.107 0.354 0.158 0.539 0.158 0.329 0 0.651-0.162 0.842-0.459 0.177-0.275 0.356-0.548 0.539-0.819 0.308-0.459 0.186-1.08-0.273-1.388-0.458-0.31-1.081-0.186-1.388 0.273-0.189 0.282-0.377 0.566-0.561 0.853C24.959 39.653 25.094 40.272 25.559 40.571z" fill="#ffffff" data-fill-palette-color="accent"></path><path d="M33.791 32.011c0.401-0.379 0.42-1.012 0.041-1.414-0.38-0.4-1.012-0.419-1.414-0.041-0.247 0.234-0.493 0.471-0.736 0.71-0.393 0.389-0.396 1.021-0.009 1.415 0.196 0.197 0.454 0.297 0.712 0.297 0.254 0 0.508-0.096 0.703-0.289C33.319 32.46 33.554 32.233 33.791 32.011z" fill="#ffffff" data-fill-palette-color="accent"></path><path d="M23.192 44.976c0.144 0.071 0.295 0.104 0.445 0.104 0.368 0 0.722-0.203 0.896-0.555 0.146-0.293 0.294-0.585 0.445-0.873 0.256-0.489 0.067-1.094-0.422-1.349-0.49-0.258-1.094-0.066-1.35 0.422-0.158 0.302-0.313 0.605-0.464 0.91C22.496 44.13 22.698 44.729 23.192 44.976z" fill="#ffffff" data-fill-palette-color="accent"></path><path d="M46.412 22.559c-0.226-0.505-0.818-0.729-1.321-0.503-0.313 0.14-0.622 0.284-0.929 0.43-0.498 0.239-0.709 0.836-0.471 1.334 0.172 0.359 0.53 0.568 0.904 0.569 0.145 0 0.292-0.031 0.43-0.098 0.293-0.141 0.587-0.277 0.884-0.411C46.413 23.654 46.639 23.063 46.412 22.559z" fill="#ffffff" data-fill-palette-color="accent"></path><path d="M37.719 27.456c-0.332-0.439-0.959-0.529-1.401-0.197-0.271 0.205-0.541 0.413-0.807 0.623-0.435 0.342-0.509 0.971-0.168 1.404 0.197 0.251 0.491 0.382 0.787 0.382 0.216 0 0.435-0.07 0.617-0.214 0.257-0.202 0.515-0.402 0.774-0.598C37.963 28.523 38.051 27.896 37.719 27.456z" fill="#ffffff" data-fill-palette-color="accent"></path><path d="M41.929 24.762c-0.283-0.475-0.897-0.632-1.371-0.348-0.293 0.175-0.583 0.351-0.871 0.53-0.469 0.292-0.612 0.908-0.32 1.377 0.189 0.305 0.516 0.472 0.85 0.472 0.181 0 0.363-0.049 0.527-0.151 0.277-0.172 0.556-0.342 0.837-0.509C42.056 25.851 42.211 25.236 41.929 24.762z" fill="#ffffff" data-fill-palette-color="accent"></path><path d="M49.214 22.485c0.109 0 0.222-0.018 0.331-0.056l0.375-0.128c0.524-0.173 0.809-0.739 0.635-1.264-0.173-0.523-0.735-0.809-1.264-0.635l-0.408 0.14c-0.521 0.183-0.795 0.753-0.612 1.274C48.415 22.228 48.801 22.485 49.214 22.485z" fill="#ffffff" data-fill-palette-color="accent"></path><path d="M43.491 102.938c-0.289-0.153-0.576-0.31-0.862-0.468-0.482-0.271-1.092-0.095-1.359 0.388-0.269 0.482-0.094 1.092 0.388 1.36 0.298 0.166 0.597 0.328 0.898 0.487 0.148 0.079 0.309 0.116 0.466 0.116 0.358 0 0.705-0.193 0.885-0.532C44.166 103.802 43.979 103.196 43.491 102.938z" fill="#ffffff" data-fill-palette-color="accent"></path><path d="M34.681 96.808c-0.412-0.367-1.045-0.331-1.412 0.082s-0.33 1.045 0.082 1.412c0.254 0.226 0.51 0.449 0.767 0.67 0.188 0.162 0.42 0.241 0.651 0.241 0.281 0 0.562-0.118 0.758-0.35 0.36-0.419 0.312-1.05-0.108-1.409C35.171 97.241 34.925 97.025 34.681 96.808z" fill="#ffffff" data-fill-palette-color="accent"></path><path d="M23.804 81.924c-0.133-0.297-0.263-0.596-0.389-0.896-0.215-0.51-0.802-0.745-1.31-0.534-0.509 0.214-0.748 0.8-0.534 1.31 0.132 0.313 0.268 0.626 0.407 0.936 0.166 0.371 0.531 0.592 0.914 0.592 0.136 0 0.274-0.027 0.407-0.087C23.803 83.02 24.029 82.428 23.804 81.924z" fill="#ffffff" data-fill-palette-color="accent"></path><path d="M47.935 104.976c-0.305-0.12-0.607-0.242-0.908-0.368-0.513-0.218-1.096 0.026-1.308 0.536-0.214 0.51 0.026 1.096 0.535 1.308 0.315 0.133 0.632 0.261 0.95 0.385 0.12 0.047 0.243 0.069 0.365 0.069 0.399 0 0.776-0.241 0.931-0.635C48.702 105.757 48.448 105.177 47.935 104.976z" fill="#ffffff" data-fill-palette-color="accent"></path><path d="M38.498 99.86c-0.451-0.321-1.074-0.216-1.394 0.235s-0.216 1.074 0.234 1.394c0.277 0.198 0.558 0.393 0.84 0.584 0.172 0.117 0.367 0.173 0.56 0.173 0.32 0 0.635-0.153 0.828-0.438 0.311-0.457 0.191-1.079-0.265-1.389C39.03 100.235 38.764 100.049 38.498 99.86z" fill="#ffffff" data-fill-palette-color="accent"></path><path d="M28.168 89.543c-0.321-0.448-0.945-0.553-1.396-0.231-0.449 0.322-0.553 0.946-0.231 1.395 0.198 0.277 0.399 0.551 0.603 0.823 0.196 0.263 0.497 0.401 0.801 0.402 0.208 0 0.418-0.064 0.598-0.2 0.442-0.33 0.533-0.957 0.202-1.399C28.55 90.072 28.358 89.809 28.168 89.543z" fill="#ffffff" data-fill-palette-color="accent"></path><path d="M31.223 93.355c-0.37-0.412-1.002-0.445-1.412-0.076-0.411 0.369-0.445 1.001-0.077 1.412 0.228 0.253 0.457 0.505 0.69 0.753 0.197 0.21 0.464 0.316 0.73 0.317 0.245 0 0.49-0.09 0.684-0.27 0.403-0.378 0.424-1.011 0.047-1.414C31.662 93.839 31.44 93.599 31.223 93.355z" fill="#ffffff" data-fill-palette-color="accent"></path><path d="M25.555 85.417c-0.271-0.481-0.88-0.653-1.362-0.385-0.481 0.27-0.654 0.879-0.384 1.362 0.166 0.296 0.336 0.592 0.507 0.884 0.187 0.317 0.521 0.493 0.864 0.493 0.172 0 0.347-0.044 0.506-0.137 0.477-0.28 0.635-0.894 0.355-1.369C25.875 85.983 25.713 85.701 25.555 85.417z" fill="#ffffff" data-fill-palette-color="accent"></path><path d="M77.002 106.048c-0.312 0.096-0.624 0.188-0.939 0.279-0.531 0.151-0.838 0.705-0.685 1.236 0.125 0.439 0.525 0.725 0.961 0.725 0.091 0 0.184-0.013 0.275-0.039 0.326-0.093 0.652-0.189 0.976-0.289 0.528-0.163 0.824-0.723 0.662-1.25C78.089 106.184 77.532 105.883 77.002 106.048z" fill="#ffffff" data-fill-palette-color="accent"></path><path d="M81.576 104.35c-0.298 0.13-0.598 0.257-0.898 0.379-0.511 0.21-0.756 0.794-0.547 1.305 0.159 0.387 0.532 0.621 0.926 0.621 0.127 0 0.255-0.023 0.379-0.074 0.314-0.129 0.628-0.262 0.939-0.397 0.507-0.221 0.738-0.811 0.518-1.317C82.673 104.362 82.085 104.13 81.576 104.35z" fill="#ffffff" data-fill-palette-color="accent"></path><path d="M90.025 99.482c-0.263 0.192-0.528 0.383-0.795 0.571-0.451 0.317-0.561 0.941-0.243 1.393 0.194 0.276 0.505 0.425 0.82 0.425 0.198 0 0.399-0.059 0.574-0.182 0.278-0.195 0.554-0.394 0.828-0.595 0.445-0.327 0.541-0.952 0.214-1.398C91.097 99.251 90.469 99.154 90.025 99.482z" fill="#ffffff" data-fill-palette-color="accent"></path><path d="M106.136 79.866c-0.508-0.204-1.095 0.041-1.302 0.554-0.122 0.303-0.247 0.605-0.376 0.906-0.217 0.508 0.02 1.096 0.527 1.313 0.128 0.055 0.261 0.08 0.393 0.08 0.388 0 0.758-0.228 0.92-0.608 0.133-0.313 0.264-0.627 0.391-0.943C106.896 80.656 106.648 80.073 106.136 79.866z" fill="#ffffff" data-fill-palette-color="accent"></path><path d="M104.112 84.44c-0.485-0.262-1.093-0.079-1.354 0.408-0.153 0.286-0.311 0.57-0.473 0.852-0.274 0.479-0.108 1.091 0.371 1.365 0.157 0.09 0.328 0.132 0.496 0.132 0.347 0 0.685-0.181 0.869-0.503 0.17-0.298 0.335-0.598 0.499-0.899C104.781 85.309 104.599 84.702 104.112 84.44z" fill="#ffffff" data-fill-palette-color="accent"></path><path d="M107.635 75.095c-0.533-0.15-1.084 0.162-1.232 0.694-0.088 0.315-0.179 0.63-0.273 0.943-0.16 0.529 0.14 1.087 0.668 1.247 0.097 0.029 0.193 0.043 0.289 0.042 0.43 0 0.827-0.278 0.957-0.71 0.099-0.327 0.193-0.655 0.285-0.985C108.478 75.794 108.167 75.242 107.635 75.095z" fill="#ffffff" data-fill-palette-color="accent"></path><path d="M85.936 102.151c-0.281 0.162-0.564 0.321-0.85 0.477-0.485 0.265-0.664 0.872-0.399 1.356 0.182 0.333 0.524 0.521 0.878 0.522 0.162 0 0.326-0.039 0.478-0.122 0.299-0.163 0.596-0.33 0.891-0.5 0.479-0.275 0.644-0.887 0.367-1.365C87.025 102.04 86.415 101.875 85.936 102.151z" fill="#ffffff" data-fill-palette-color="accent"></path><path d="M93.798 96.376c-0.24 0.221-0.483 0.438-0.729 0.654-0.414 0.366-0.453 0.998-0.088 1.412 0.198 0.224 0.474 0.338 0.75 0.338 0.235 0 0.472-0.082 0.663-0.25 0.255-0.226 0.508-0.453 0.757-0.683 0.407-0.374 0.433-1.006 0.059-1.412C94.838 96.027 94.202 96.001 93.798 96.376z" fill="#ffffff" data-fill-palette-color="accent"></path><path d="M100.202 89.015c-0.185 0.269-0.374 0.534-0.564 0.797-0.324 0.447-0.225 1.072 0.222 1.397 0.178 0.129 0.383 0.19 0.586 0.19 0.31 0 0.615-0.144 0.811-0.413 0.2-0.275 0.397-0.555 0.592-0.835 0.313-0.455 0.199-1.077-0.255-1.391C101.138 88.447 100.517 88.56 100.202 89.015z" fill="#ffffff" data-fill-palette-color="accent"></path><path d="M97.203 92.874c-0.214 0.246-0.431 0.489-0.649 0.73-0.371 0.409-0.341 1.041 0.067 1.413 0.192 0.174 0.433 0.26 0.673 0.259 0.271 0 0.543-0.11 0.74-0.327 0.229-0.252 0.455-0.507 0.679-0.764 0.362-0.417 0.317-1.048-0.1-1.411C98.196 92.411 97.564 92.455 97.203 92.874z" fill="#ffffff" data-fill-palette-color="accent"></path><path d="M105.244 48.637c0.113 0.305 0.223 0.61 0.33 0.917 0.144 0.413 0.53 0.672 0.945 0.672 0.109 0 0.22-0.018 0.328-0.056 0.522-0.182 0.798-0.751 0.616-1.273-0.111-0.322-0.227-0.642-0.346-0.959-0.192-0.518-0.77-0.779-1.286-0.587C105.313 47.543 105.051 48.119 105.244 48.637z" fill="#ffffff" data-fill-palette-color="accent"></path><path d="M106.689 53.299c0.079 0.314 0.154 0.63 0.226 0.947 0.104 0.465 0.518 0.78 0.975 0.78 0.073 0 0.146-0.008 0.22-0.024 0.539-0.121 0.877-0.656 0.756-1.195-0.075-0.333-0.154-0.666-0.237-0.996-0.135-0.535-0.68-0.859-1.214-0.726C106.88 52.22 106.555 52.763 106.689 53.299z" fill="#ffffff" data-fill-palette-color="accent"></path><path d="M103.286 44.166c0.146 0.29 0.29 0.582 0.43 0.875 0.172 0.359 0.53 0.568 0.903 0.568 0.145 0 0.292-0.031 0.431-0.097 0.498-0.239 0.709-0.836 0.471-1.334-0.147-0.307-0.297-0.612-0.452-0.916-0.249-0.492-0.849-0.692-1.343-0.44C103.233 43.071 103.036 43.673 103.286 44.166z" fill="#ffffff" data-fill-palette-color="accent"></path><path d="M78.075 22.3c0.309 0.104 0.616 0.211 0.922 0.322 0.113 0.041 0.229 0.061 0.343 0.061 0.408 0 0.792-0.252 0.939-0.658 0.189-0.52-0.078-1.093-0.596-1.282-0.321-0.117-0.645-0.23-0.969-0.34-0.527-0.174-1.092 0.107-1.268 0.629C77.271 21.557 77.552 22.123 78.075 22.3z" fill="#ffffff" data-fill-palette-color="accent"></path><path d="M101.368 40.758c0.189 0.305 0.516 0.473 0.851 0.472 0.18 0 0.362-0.049 0.526-0.15 0.47-0.291 0.613-0.908 0.322-1.377-0.181-0.29-0.364-0.578-0.551-0.863-0.302-0.461-0.923-0.592-1.385-0.287-0.462 0.303-0.59 0.923-0.287 1.384C101.021 40.209 101.197 40.481 101.368 40.758z" fill="#ffffff" data-fill-palette-color="accent"></path><path d="M98.557 36.762c0.197 0.251 0.491 0.382 0.787 0.382 0.216 0 0.435-0.07 0.617-0.214 0.435-0.342 0.509-0.971 0.168-1.405-0.211-0.269-0.425-0.533-0.642-0.796-0.352-0.425-0.98-0.486-1.408-0.134-0.426 0.352-0.486 0.981-0.135 1.408C98.151 36.254 98.355 36.507 98.557 36.762z" fill="#ffffff" data-fill-palette-color="accent"></path><path d="M84.833 24.093c0.246-0.495 0.044-1.095-0.45-1.341-0.307-0.152-0.614-0.3-0.924-0.445-0.499-0.232-1.096-0.017-1.33 0.482-0.233 0.5-0.018 1.096 0.482 1.33 0.296 0.138 0.59 0.279 0.881 0.424 0.144 0.071 0.295 0.104 0.445 0.104C84.305 24.647 84.658 24.444 84.833 24.093z" fill="#ffffff" data-fill-palette-color="accent"></path><path d="M92.969 28.266c-0.267-0.216-0.533-0.428-0.803-0.637-0.437-0.337-1.064-0.257-1.403 0.179-0.338 0.437-0.258 1.065 0.178 1.403 0.258 0.199 0.513 0.401 0.766 0.607 0.186 0.15 0.409 0.224 0.63 0.224 0.291 0 0.58-0.126 0.777-0.37C93.462 29.243 93.397 28.614 92.969 28.266z" fill="#ffffff" data-fill-palette-color="accent"></path><path d="M96.749 31.695c-0.239-0.242-0.48-0.481-0.725-0.717-0.396-0.386-1.031-0.375-1.414 0.019-0.386 0.396-0.376 1.029 0.02 1.414 0.234 0.229 0.466 0.458 0.695 0.691 0.196 0.197 0.454 0.297 0.712 0.296 0.254 0 0.508-0.096 0.703-0.288C97.133 32.722 97.137 32.089 96.749 31.695z" fill="#ffffff" data-fill-palette-color="accent"></path><path d="M89.13 26.65c0.298-0.464 0.163-1.083-0.302-1.381-0.287-0.185-0.576-0.365-0.868-0.543-0.47-0.288-1.087-0.138-1.374 0.333-0.288 0.472-0.139 1.087 0.333 1.374 0.278 0.17 0.554 0.343 0.829 0.519 0.167 0.107 0.354 0.158 0.539 0.158C88.616 27.11 88.938 26.948 89.13 26.65z" fill="#ffffff" data-fill-palette-color="accent"></path><path d="M73.46 103.961c-0.329-0.171-0.731-0.145-1.037 0.069-0.015 0.01-1.321 0.902-3.423 1.142v-5.29c0-0.373-0.209-0.713-0.54-0.885-0.33-0.173-0.73-0.146-1.037 0.068-0.017 0.012-1.753 1.202-4.453 1.203-1.221 0-1.851-0.314-2.649-0.712-1.011-0.504-2.156-1.075-4.447-1.076-1.516 0-3.314 0.55-5.345 1.635C50.203 100.289 50 100.628 50 100.997v8.408c0 0.352 0.185 0.677 0.485 0.858 0.301 0.18 0.674 0.19 0.986 0.024 1.537-0.819 2.693-1.175 3.529-1.316v5.4c0 0.352 0.185 0.677 0.485 0.858 0.3 0.181 0.674 0.19 0.986 0.024 2.167-1.155 3.591-1.398 4.403-1.399 1.819 0 2.663 0.421 3.555 0.866 0.867 0.433 1.849 0.923 3.541 0.923 3.372 0 5.521-1.509 5.611-1.574C73.844 113.882 74 113.579 74 113.256v-8.409C74 104.474 73.79 104.134 73.46 103.961zM72 112.686c-0.672 0.353-2.106 0.957-4.03 0.957-1.221 0-1.851-0.314-2.648-0.712-1.012-0.505-2.157-1.076-4.448-1.077-1.138 0-2.437 0.311-3.874 0.925v-3.825c1.087 0.134 1.746 0.459 2.429 0.8 0.867 0.433 1.849 0.923 3.541 0.923 3.372 0 5.521-1.509 5.611-1.573C68.844 108.916 69 108.613 69 108.29v-1.112c1.216-0.113 2.238-0.403 3-0.704V112.686zM52 107.813v-1.472-4.734c1.87-0.923 3.128-1.127 3.874-1.127 1.82 0 2.663 0.42 3.555 0.866 0.867 0.433 1.85 0.922 3.541 0.922 1.683 0 3.061-0.375 4.03-0.76v3.635 1.021 1.006 0.55c-0.672 0.353-2.106 0.957-4.03 0.957-1.221 0-1.851-0.314-2.648-0.712-0.829-0.414-1.758-0.866-3.322-1.019-0.308-0.03-0.637-0.05-1-0.053-0.044 0-0.081-0.004-0.126-0.004-0.281 0-0.573 0.02-0.874 0.057-0.532 0.067-1.1 0.204-1.69 0.389C52.886 107.468 52.452 107.62 52 107.813z" fill="#ffffff" data-fill-palette-color="accent"></path><path d="M58.171 106.056c0.361 0.335 0.84 0.544 1.371 0.544 0.799 0 1.483-0.467 1.812-1.139 0.131-0.268 0.211-0.564 0.21-0.883 0-0.039-0.009-0.075-0.011-0.112-0.021-0.371-0.135-0.717-0.329-1.009-0.363-0.543-0.98-0.901-1.682-0.901-0.974 0-1.787 0.689-1.978 1.607-0.028 0.134-0.044 0.273-0.044 0.415 0 0.218 0.043 0.423 0.107 0.62C57.735 105.53 57.921 105.824 58.171 106.056z" fill="#ffffff" data-fill-palette-color="accent"></path><path d="M64 25c2.757 0 5-2.243 5-5s-2.243-5-5-5-5 2.243-5 5S61.243 25 64 25zM64 17c1.654 0 3 1.346 3 3s-1.346 3-3 3-3-1.346-3-3S62.346 17 64 17z" fill="#ffffff" data-fill-palette-color="accent"></path><path d="M53 21h2c0.02 0 0.037-0.01 0.057-0.012 0.181 1.652 0.816 3.165 1.771 4.426-0.01 0.009-0.024 0.012-0.034 0.023l-1.613 1.613c-0.391 0.391-0.391 1.023 0 1.414 0.195 0.195 0.451 0.293 0.707 0.293s0.512-0.098 0.707-0.293l1.598-1.599c1.332 1.128 2.993 1.877 4.818 2.078C63.01 28.963 63 28.98 63 29v2c0 0.553 0.447 1 1 1s1-0.447 1-1v-2c0-0.02-0.01-0.037-0.011-0.057 1.825-0.201 3.486-0.949 4.818-2.078l1.598 1.599c0.195 0.195 0.451 0.293 0.707 0.293s0.512-0.098 0.707-0.293c0.391-0.391 0.391-1.023 0-1.414l-1.613-1.613c-0.01-0.01-0.023-0.013-0.034-0.023 0.954-1.261 1.589-2.774 1.771-4.426C72.963 20.99 72.98 21 73 21h2c0.553 0 1-0.447 1-1s-0.447-1-1-1h-2c-0.02 0-0.037 0.01-0.057 0.012-0.201-1.826-0.949-3.486-2.078-4.819l1.954-1.954c0.391-0.391 0.391-1.023 0-1.414s-1.023-0.391-1.414 0l-1.997 1.998c-1.259-0.951-2.77-1.584-4.419-1.766C64.99 11.037 65 11.02 65 11V9c0-0.553-0.447-1-1-1s-1 0.447-1 1v2c0 0.02 0.01 0.037 0.011 0.057-1.649 0.181-3.16 0.814-4.419 1.766l-1.997-1.998c-0.391-0.391-1.023-0.391-1.414 0s-0.391 1.023 0 1.414l1.954 1.954c-1.128 1.332-1.877 2.993-2.078 4.819C55.037 19.01 55.02 19 55 19h-2c-0.553 0-1 0.447-1 1S52.447 21 53 21zM64 13c3.859 0 7 3.141 7 7s-3.141 7-7 7-7-3.141-7-7S60.141 13 64 13z" fill="#ffffff" data-fill-palette-color="accent"></path><path d="M117.077 60.194c-0.347-0.846-1.377-1.803-4.265-1.675C111.352 56.972 109.29 56 107 56c-4.387 0-7.957 3.55-7.996 7.927-2.641 2.141-2.76 3.693-2.381 4.622 0.326 0.798 1.249 1.696 3.751 1.696 0.266 0 0.549-0.01 0.852-0.031 0.205-0.015 0.433-0.056 0.647-0.081C103.262 71.297 105.05 72 107 72c4.209 0 7.661-3.269 7.97-7.401C116.688 63.137 117.643 61.579 117.077 60.194zM107 58c3.178 0 5.78 2.486 5.98 5.614-1.226 0.918-2.962 1.943-5.261 2.883-1.797 0.734-3.575 1.261-5.15 1.535C101.598 66.965 101 65.553 101 64 101 60.691 103.691 58 107 58zM98.475 67.793c-0.064-0.157 0.118-0.691 0.87-1.478 0.208 0.686 0.51 1.329 0.883 1.925C98.954 68.216 98.517 67.897 98.475 67.793zM107 70c-0.774 0-1.513-0.152-2.193-0.421 1.187-0.312 2.426-0.723 3.668-1.23 1.41-0.576 2.804-1.269 4.056-2.026C111.622 68.481 109.485 70 107 70zM114.738 62.004c-0.13-0.504-0.307-0.987-0.528-1.447 0.712 0.103 0.982 0.314 1.016 0.393C115.301 61.135 115.14 61.512 114.738 62.004z" fill="#ffffff" data-fill-palette-color="accent"></path><path d="M22.286 71c1.4 0 2.602-0.952 2.921-2.315 0.184-0.786 0.449-1.557 0.788-2.292l1.406-3.048c0.016-0.034 0.029-0.069 0.041-0.105 0.381-0.907 0.574-1.865 0.575-2.848 0-2.219-0.986-4.298-2.705-5.705-1.72-1.406-3.975-1.958-6.192-1.506-2.727 0.553-4.988 2.744-5.628 5.453-0.37 1.572-0.24 3.169 0.375 4.623 0.01 0.03 0.022 0.059 0.035 0.088l1.408 3.049c0.337 0.729 0.602 1.5 0.787 2.291C16.416 70.048 17.617 71 19.018 71H22.286zM18.044 68.228c-0.216-0.922-0.525-1.822-0.919-2.673l-1.379-2.988c-0.005-0.014-0.011-0.027-0.017-0.041-0.466-1.073-0.566-2.261-0.29-3.433 0.463-1.963 2.103-3.551 4.078-3.951 1.621-0.333 3.275 0.068 4.528 1.094 1.253 1.024 1.972 2.539 1.972 4.156 0 0.738-0.149 1.457-0.445 2.135-0.009 0.019-0.016 0.038-0.023 0.058l-1.37 2.97c-0.396 0.858-0.704 1.757-0.919 2.673C23.153 68.683 22.753 69 22.286 69h-3.268C18.551 69 18.15 68.683 18.044 68.228z" fill="#ffffff" data-fill-palette-color="accent"></path><path d="M23 74c0.553 0 1-0.447 1-1s-0.447-1-1-1h-5c-0.553 0-1 0.447-1 1s0.447 1 1 1H23z" fill="#ffffff" data-fill-palette-color="accent"></path><path d="M23 76c0-0.553-0.447-1-1-1h-3c-0.553 0-1 0.447-1 1s0.447 1 1 1h3C22.553 77 23 76.553 23 76z" fill="#ffffff" data-fill-palette-color="accent"></path><path d="M21 51.589c0.553 0 1-0.447 1-1V48c0-0.553-0.447-1-1-1s-1 0.447-1 1v2.589C20 51.142 20.447 51.589 21 51.589z" fill="#ffffff" data-fill-palette-color="accent"></path><path d="M26.512 48.361c-0.516-0.194-1.092 0.072-1.284 0.591l-0.802 2.167c-0.192 0.518 0.072 1.093 0.591 1.284 0.114 0.043 0.231 0.063 0.346 0.063 0.406 0 0.788-0.249 0.938-0.653l0.802-2.167C27.295 49.128 27.03 48.553 26.512 48.361z" fill="#ffffff" data-fill-palette-color="accent"></path><path d="M15.717 51.813c0.149 0.403 0.532 0.653 0.938 0.653 0.115 0 0.232-0.02 0.347-0.062 0.518-0.192 0.783-0.767 0.592-1.285l-0.801-2.167c-0.191-0.519-0.768-0.781-1.285-0.592-0.518 0.192-0.783 0.767-0.592 1.286L15.717 51.813z" fill="#ffffff" data-fill-palette-color="accent"></path><path d="M81.022 79.666l-0.677-4.001C79.206 68.93 73.372 64 66.541 64h-5.082c-6.831 0-12.665 4.93-13.804 11.665l-0.677 4.001C46.772 80.887 47.712 82 48.95 82h30.1C80.288 82 81.228 80.887 81.022 79.666z" fill="#ffffff" data-fill-palette-color="accent"></path><path d="M49.402 52.844c0 2.262 1.834 4.096 4.096 4.097 0.581 0 1.131-0.124 1.632-0.342 0.913 1.766 2.354 3.28 4.251 4.268C60.856 61.636 62.435 62 63.992 62c3.608 0 7.093-1.959 8.875-5.381 0.115-0.22 0.21-0.444 0.306-0.668 0.715 0.609 1.63 0.99 2.643 0.99 2.262 0 4.096-1.834 4.096-4.097 0-1.733-1.08-3.206-2.6-3.804 0.252-0.531 0.404-1.118 0.404-1.746 0-2.262-1.834-4.096-4.096-4.096-1.189 0-2.25 0.515-2.999 1.324-0.599-0.529-1.261-1.003-2.002-1.389C67.144 42.364 65.565 42 64.008 42c-2.134 0-4.216 0.701-5.937 1.969-0.671-0.481-1.488-0.771-2.377-0.771-2.262 0-4.096 1.834-4.096 4.096 0 0.627 0.152 1.214 0.403 1.746C50.481 49.638 49.402 51.112 49.402 52.844zM60.305 59.093c-1.64-0.854-2.853-2.204-3.567-3.768-0.373-0.816-0.608-1.689-0.693-2.584 0.532-0.072 1.034-0.179 1.507-0.32 3.495-1.037 5.414-3.792 6.44-6.11 0.521 1.58 1.68 3.078 4.23 3.078 0 0-0.22 3.713 3.526 4.565-0.149 0.592-0.361 1.177-0.655 1.741C69.71 58.35 66.989 60 63.992 60 62.7 60 61.46 59.695 60.305 59.093z" fill="#ffffff" data-fill-palette-color="accent"></path></g></svg></g></svg></g></svg></g><defs></defs></svg><rect width="395.52" height="78.4519297586827" fill="none" stroke="none" visibility="hidden"></rect></g></svg></g></svg>