<svg xmlns="http://www.w3.org/2000/svg" version="1.1" xmlns:xlink="http://www.w3.org/1999/xlink" xmlns:svgjs="http://svgjs.dev/svgjs" width="2000" height="606" viewBox="0 0 2000 606"><g transform="matrix(1,0,0,1,0.3398876404492057,-1.1446666666665237)"><svg viewBox="0 0 356 108" data-background-color="#ffffff" preserveAspectRatio="xMidYMid meet" height="606" width="2000" xmlns="http://www.w3.org/2000/svg" xmlns:xlink="http://www.w3.org/1999/xlink"><g id="tight-bounds" transform="matrix(1,0,0,1,-0.06049999999996203,0.2039999999999793)"><svg viewBox="0 0 356.12052 107.59199731524556" height="107.59199731524556" width="356.12052"><g><svg viewBox="0 0 356.12052 107.59199731524556" height="107.59199731524556" width="356.12052"><g><svg viewBox="0 0 356.12052 107.59199731524556" height="107.59199731524556" width="356.12052"><g><path d="M0 107.592v-107.592h356.121v107.592z" fill="#000000" stroke="transparent" stroke-width="0" rx="0%" data-fill-palette-color="tertiary"></path><path d="M3.283 104.309v-101.026h349.554v101.026z" fill="#ffffff" stroke="transparent" stroke-width="0" rx="0%" data-fill-palette-color="quaternary"></path><path d="M9.85 97.742v-87.892h336.421v87.892z" fill="#000000" stroke="transparent" stroke-width="0" data-fill-palette-color="tertiary"></path></g><g transform="matrix(1,0,0,1,19.69974,19.69974)" id="textblocktransform"><svg viewBox="0 0 316.72104 68.19251731524557" height="68.19251731524557" width="316.72104" id="textblock"><g><svg viewBox="0 0 316.72104 43.21306220855994" height="43.21306220855994" width="316.72104"><g transform="matrix(1,0,0,1,0,0)"><svg width="316.72104" viewBox="4 -28.8 211.44 28.85" height="43.21306220855994" data-palette-color="#ffffff"><path d="M33.8-28.8L33.8 0 20.2 0 20.2-5.25 27.5-5.25 27.5-17.25 20-17.25 20-21.9 27.5-21.9 27.5-28.8 33.8-28.8ZM4-3.45L4-18.45 9.7-21.9 17.8-21.9 17.8-17.25 10.1-17.25 10.1-5.25 17.6-5.25 17.6 0 9.7 0 4-3.45ZM73-18.55L73-12.85 67.1-9.4 59.1-9.4 59.1-13.25 66.65-13.25 66.65-17.35 59.1-17.35 59.1-22.05 67.1-22.05 73-18.55ZM66.45-6.95L73-6.95 73-3.45 67.1 0 59.1 0 59.1-5.3 66.45-5.3 66.45-6.95ZM42.8-18.55L42.8-3.45 48.7 0 56.65 0 56.65-5.3 49.1-5.3 49.1-9.4 56.65-9.4 56.65-13.25 49.1-13.25 49.1-17.35 56.65-17.35 56.65-22.05 48.7-22.05 42.8-18.55ZM82 0L82-21.85 88.25-21.85 88.25-19.7 95.75-21.85 95.75-17.2 88.25-17.2 88.25 0 82 0ZM104.5-15.05L104.5-19.1 98-21.85 98-15.05 104.5-15.05ZM109.39 0L109.39-21.85 115.64-21.85 115.64-19.7 123.14-21.85 123.14-17.2 115.64-17.2 115.64 0 109.39 0ZM131.89-15.05L131.89-19.1 125.39-21.85 125.39-15.05 131.89-15.05ZM136.39-22L142.69-22 142.69 0.05 136.39 0.05 136.39-22ZM142.59-28.7L142.59-24.05 136.39-24.05 136.39-28.7 142.59-28.7ZM150.69-3.45L150.69-18.6 156.39-22.05 164.59-22.05 164.59-17.35 157.04-17.35 157.04-5.3 164.39-5.3 164.39 0 156.39 0 150.69-3.45ZM174.39-15.1L180.69-15.1 180.69-18.6 174.99-22.05 166.84-22.05 166.84-17.35 174.39-17.35 174.39-15.1ZM174.39-6.95L180.69-6.95 180.69-3.45 174.99 0 166.84 0 166.84-5.3 174.39-5.3 174.39-6.95ZM185.59 0.05L185.59-28.75 191.89-28.75 191.89-13.1 194.69-13.1 194.69-9.45 191.89-9.45 191.89 0.05 185.59 0.05ZM215.44-3.4L202.89-11.5 214.34-19.05 210.19-22 197.19-13.1 197.19-9.45 209.79 0.05 215.44-3.4Z" opacity="1" transform="matrix(1,0,0,1,0,0)" fill="#ffffff" class="wordmark-text-0" data-fill-palette-color="quaternary" id="text-0"></path></svg></g></svg></g><g transform="matrix(1,0,0,1,0,49.77964220855994)"><svg viewBox="0 0 316.72104 18.412875106685632" height="18.412875106685632" width="316.72104"><g transform="matrix(1,0,0,1,0,0)"><svg width="316.72104" viewBox="4.9 -36.25 808.45 47" height="18.412875106685632" data-palette-color="#ffffff"><path d="M18.1 0L4.9 0 4.9-33 17.9-33Q23.85-33 26.6-30.6 29.35-28.2 29.35-23.95L29.35-23.95Q29.35-21.35 27.85-19.33 26.35-17.3 23.45-16.75L23.45-16.75 23.45-16.7Q26.65-16.2 28.43-14.08 30.2-11.95 30.2-9.15L30.2-9.15Q30.2-4.9 27.1-2.45 24 0 18.1 0L18.1 0ZM10.15-14.35L10.15-4.45 18.35-4.45Q21.5-4.45 23.08-5.75 24.65-7.05 24.65-9.4L24.65-9.4Q24.65-11.75 23.08-13.05 21.5-14.35 18.35-14.35L18.35-14.35 10.15-14.35ZM10.15-28.5L10.15-18.8 17.5-18.8Q23.8-18.8 23.8-23.65L23.8-23.65Q23.8-28.5 17.5-28.5L17.5-28.5 10.15-28.5ZM46.15 0.5L46.15 0.5Q43.7 0.5 41.63-0.4 39.55-1.3 38.3-3.3 37.05-5.3 37.05-8.5L37.05-8.5 37.05-25 42.4-25 42.4-9.85Q42.4-6.45 43.85-5.18 45.3-3.9 47.9-3.9L47.9-3.9Q49.15-3.9 50.33-4.33 51.5-4.75 52.45-5.68 53.4-6.6 53.93-8.05 54.45-9.5 54.45-11.45L54.45-11.45 54.45-25 59.8-25 59.8 0 55.1 0 54.85-4.05Q53.55-1.7 51.35-0.6 49.15 0.5 46.15 0.5ZM70.85-29.2L70.85-29.2Q69.1-29.2 68.18-30.08 67.25-30.95 67.25-32.55L67.25-32.55Q67.25-34.15 68.18-35 69.1-35.85 70.85-35.85L70.85-35.85Q72.55-35.85 73.48-35 74.4-34.15 74.4-32.55L74.4-32.55Q74.4-30.95 73.48-30.08 72.55-29.2 70.85-29.2ZM68.15-25L73.5-25 73.5 0 68.15 0 68.15-25ZM81.7-36.25L87.05-36.25 87.05-7Q87.05-5.15 87.7-4.45 88.35-3.75 89.85-3.75L89.85-3.75Q90.75-3.75 91.38-3.88 92-4 92.95-4.35L92.95-4.35 92.35-0.35Q91.5 0.05 90.4 0.28 89.3 0.5 88.2 0.5L88.2 0.5Q84.85 0.5 83.28-1.23 81.7-2.95 81.7-6.55L81.7-6.55 81.7-36.25ZM107.05 0.5L107.05 0.5Q103.95 0.5 101.43-1.05 98.9-2.6 97.45-5.5 96-8.4 96-12.45L96-12.45Q96-16.65 97.55-19.55 99.1-22.45 101.7-23.98 104.3-25.5 107.4-25.5L107.4-25.5Q110.6-25.5 112.8-23.75 115-22 115.75-19.2L115.75-19.2 115.15-18.65 115.15-36.25 120.5-36.25 120.5 0 115.75 0 115.35-6.8 116.05-6.75Q115.7-4.5 114.4-2.88 113.1-1.25 111.18-0.38 109.25 0.5 107.05 0.5ZM108.2-3.8L108.2-3.8Q110.35-3.8 111.9-4.9 113.45-6 114.3-8 115.15-10 115.15-12.8L115.15-12.8Q115.15-15.4 114.3-17.28 113.45-19.15 111.93-20.15 110.4-21.15 108.4-21.15L108.4-21.15Q105.05-21.15 103.2-18.85 101.35-16.55 101.35-12.5L101.35-12.5Q101.35-8.45 103.15-6.13 104.95-3.8 108.2-3.8ZM131.5-29.2L131.5-29.2Q129.75-29.2 128.83-30.08 127.9-30.95 127.9-32.55L127.9-32.55Q127.9-34.15 128.83-35 129.75-35.85 131.5-35.85L131.5-35.85Q133.2-35.85 134.13-35 135.05-34.15 135.05-32.55L135.05-32.55Q135.05-30.95 134.13-30.08 133.2-29.2 131.5-29.2ZM128.8-25L134.15-25 134.15 0 128.8 0 128.8-25ZM147.85 0L142.5 0 142.5-25 147.25-25 147.6-18.5 146.9-19.2Q147.6-21.35 148.92-22.78 150.25-24.2 152.07-24.85 153.9-25.5 155.95-25.5L155.95-25.5Q158.6-25.5 160.72-24.48 162.85-23.45 164.1-21.4 165.35-19.35 165.35-16.2L165.35-16.2 165.35 0 160 0 160-14.55Q160-18.25 158.47-19.68 156.95-21.1 154.65-21.1L154.65-21.1Q153-21.1 151.45-20.33 149.9-19.55 148.88-17.85 147.85-16.15 147.85-13.3L147.85-13.3 147.85 0ZM195.45-30.25L195.45-30.25 196.3-26.05Q196.15-26.05 196-26.08 195.85-26.1 195.7-26.1L195.7-26.1Q193.3-26.1 192.05-25.08 190.8-24.05 190.8-22.1L190.8-22.1 188.2-23.3Q188.2-25.3 189.05-26.88 189.9-28.45 191.48-29.35 193.05-30.25 195.05-30.25L195.05-30.25Q195.15-30.25 195.25-30.25 195.35-30.25 195.45-30.25ZM180.05-3.9L187.55-3.9Q191.35-3.9 193.45-2.23 195.55-0.55 195.55 2.4L195.55 2.4Q195.55 5 193.9 6.88 192.25 8.75 189.43 9.75 186.6 10.75 182.95 10.75L182.95 10.75Q176.8 10.75 173.85 8.85 170.9 6.95 170.9 4.1L170.9 4.1Q170.9 2.1 172.33 0.6 173.75-0.9 177.15-1.1L177.15-1.1 176.85-0.3Q174.75-0.75 173.48-1.93 172.2-3.1 172.2-5.25L172.2-5.25Q172.2-7.4 173.85-8.9 175.5-10.4 178.5-10.65L178.5-10.65 181.3-9.3 180.7-9.3Q178.4-9.1 177.45-8.25 176.5-7.4 176.5-6.35L176.5-6.35Q176.5-5.1 177.43-4.5 178.35-3.9 180.05-3.9L180.05-3.9ZM182.95 6.75L182.95 6.75Q185.7 6.75 187.48 6.23 189.25 5.7 190.13 4.88 191 4.05 191 3.05L191 3.05Q191 1.9 190.08 1.2 189.15 0.5 186.75 0.5L186.75 0.5 178.7 0.5Q177.3 0.5 176.35 1.23 175.4 1.95 175.4 3.2L175.4 3.2Q175.4 4.85 177.4 5.8 179.4 6.75 182.95 6.75ZM182.75-25.5L182.75-25.5Q186.05-25.5 188.48-24.45 190.9-23.4 192.23-21.5 193.55-19.6 193.55-17.05L193.55-17.05Q193.55-14.5 192.23-12.6 190.9-10.7 188.48-9.65 186.05-8.6 182.75-8.6L182.75-8.6Q177.55-8.6 174.78-10.93 172-13.25 172-17.05L172-17.05Q172-19.6 173.35-21.5 174.7-23.4 177.13-24.45 179.55-25.5 182.75-25.5ZM182.75-21.75L182.75-21.75Q180.45-21.75 178.93-20.48 177.4-19.2 177.4-17.05L177.4-17.05Q177.4-14.9 178.93-13.6 180.45-12.3 182.75-12.3L182.75-12.3Q185.1-12.3 186.63-13.6 188.15-14.9 188.15-17.05L188.15-17.05Q188.15-19.2 186.63-20.48 185.1-21.75 182.75-21.75ZM226.3 0.5L226.3 0.5Q223.2 0.5 220.68-1.05 218.15-2.6 216.7-5.5 215.25-8.4 215.25-12.45L215.25-12.45Q215.25-16.65 216.8-19.55 218.35-22.45 220.95-23.98 223.55-25.5 226.65-25.5L226.65-25.5Q229.85-25.5 232.05-23.75 234.25-22 235-19.2L235-19.2 234.4-18.65 234.4-36.25 239.75-36.25 239.75 0 235 0 234.6-6.8 235.3-6.75Q234.95-4.5 233.65-2.88 232.35-1.25 230.43-0.38 228.5 0.5 226.3 0.5ZM227.45-3.8L227.45-3.8Q229.6-3.8 231.15-4.9 232.7-6 233.55-8 234.4-10 234.4-12.8L234.4-12.8Q234.4-15.4 233.55-17.28 232.7-19.15 231.18-20.15 229.65-21.15 227.65-21.15L227.65-21.15Q224.3-21.15 222.45-18.85 220.6-16.55 220.6-12.5L220.6-12.5Q220.6-8.45 222.4-6.13 224.2-3.8 227.45-3.8ZM262.5-9.25L262.5-16.05Q262.5-18.55 261.13-19.93 259.75-21.3 257.35-21.3L257.35-21.3Q255.1-21.3 253.5-20.25 251.9-19.2 251.15-16.85L251.15-16.85 246.65-18.75Q247.6-21.8 250.38-23.65 253.15-25.5 257.55-25.5L257.55-25.5Q260.55-25.5 262.85-24.53 265.15-23.55 266.48-21.6 267.8-19.65 267.8-16.6L267.8-16.6 267.8-5.45Q267.8-3.6 269.65-3.6L269.65-3.6Q270.55-3.6 271.4-3.85L271.4-3.85 271.1-0.15Q269.95 0.4 268.2 0.4L268.2 0.4Q266.6 0.4 265.32-0.18 264.05-0.75 263.32-1.93 262.6-3.1 262.6-4.85L262.6-4.85 262.6-5.2 263.7-5.25Q263.25-3.3 261.85-2.02 260.45-0.75 258.6-0.13 256.75 0.5 254.85 0.5L254.85 0.5Q252.5 0.5 250.63-0.25 248.75-1 247.68-2.53 246.6-4.05 246.6-6.3L246.6-6.3Q246.6-9.1 248.43-10.9 250.25-12.7 253.6-13.35L253.6-13.35 263.3-15.25 263.25-11.5 256.2-10.05Q254.1-9.65 253.05-8.9 252-8.15 252-6.7L252-6.7Q252-5.3 253.08-4.48 254.15-3.65 255.95-3.65L255.95-3.65Q257.2-3.65 258.38-3.95 259.55-4.25 260.5-4.93 261.45-5.6 261.98-6.68 262.5-7.75 262.5-9.25L262.5-9.25ZM278.5-30.85L283.85-32.35 283.85-7.5Q283.85-5.65 284.82-4.8 285.8-3.95 287.45-3.95L287.45-3.95Q288.8-3.95 289.8-4.38 290.8-4.8 291.65-5.55L291.65-5.55 292.85-1.65Q291.7-0.65 290.02-0.08 288.35 0.5 286.3 0.5L286.3 0.5Q284.15 0.5 282.35-0.2 280.55-0.9 279.55-2.48 278.55-4.05 278.5-6.6L278.5-6.6 278.5-30.85ZM273.7-25L292.45-25 292.45-20.8 273.7-20.8 273.7-25ZM312.2-9.25L312.2-16.05Q312.2-18.55 310.82-19.93 309.45-21.3 307.05-21.3L307.05-21.3Q304.8-21.3 303.2-20.25 301.6-19.2 300.85-16.85L300.85-16.85 296.35-18.75Q297.3-21.8 300.07-23.65 302.85-25.5 307.25-25.5L307.25-25.5Q310.25-25.5 312.55-24.53 314.85-23.55 316.17-21.6 317.5-19.65 317.5-16.6L317.5-16.6 317.5-5.45Q317.5-3.6 319.35-3.6L319.35-3.6Q320.25-3.6 321.1-3.85L321.1-3.85 320.8-0.15Q319.65 0.4 317.9 0.4L317.9 0.4Q316.3 0.4 315.02-0.18 313.75-0.75 313.02-1.93 312.3-3.1 312.3-4.85L312.3-4.85 312.3-5.2 313.4-5.25Q312.95-3.3 311.55-2.02 310.15-0.75 308.3-0.13 306.45 0.5 304.55 0.5L304.55 0.5Q302.2 0.5 300.32-0.25 298.45-1 297.37-2.53 296.3-4.05 296.3-6.3L296.3-6.3Q296.3-9.1 298.12-10.9 299.95-12.7 303.3-13.35L303.3-13.35 313-15.25 312.95-11.5 305.9-10.05Q303.8-9.65 302.75-8.9 301.7-8.15 301.7-6.7L301.7-6.7Q301.7-5.3 302.77-4.48 303.85-3.65 305.65-3.65L305.65-3.65Q306.9-3.65 308.07-3.95 309.25-4.25 310.2-4.93 311.15-5.6 311.67-6.68 312.2-7.75 312.2-9.25L312.2-9.25ZM326.45-15.65L343.5-15.65 343.5-10.7 326.45-10.7 326.45-15.65ZM361.6 0.5L361.6 0.5Q358.5 0.5 355.97-1.05 353.45-2.6 352-5.5 350.55-8.4 350.55-12.45L350.55-12.45Q350.55-16.65 352.1-19.55 353.65-22.45 356.25-23.98 358.85-25.5 361.95-25.5L361.95-25.5Q365.15-25.5 367.35-23.75 369.55-22 370.3-19.2L370.3-19.2 369.7-18.65 369.7-36.25 375.05-36.25 375.05 0 370.3 0 369.9-6.8 370.6-6.75Q370.25-4.5 368.95-2.88 367.65-1.25 365.72-0.38 363.8 0.5 361.6 0.5ZM362.75-3.8L362.75-3.8Q364.9-3.8 366.45-4.9 368-6 368.85-8 369.7-10 369.7-12.8L369.7-12.8Q369.7-15.4 368.85-17.28 368-19.15 366.47-20.15 364.95-21.15 362.95-21.15L362.95-21.15Q359.6-21.15 357.75-18.85 355.9-16.55 355.9-12.5L355.9-12.5Q355.9-8.45 357.7-6.13 359.5-3.8 362.75-3.8ZM388.7 0L383.35 0 383.35-25 387.9-25 388.4-20.5Q389.4-22.95 391.38-24.23 393.35-25.5 396.25-25.5L396.25-25.5Q397-25.5 397.75-25.38 398.5-25.25 399-25L399-25 398.25-20.3Q397.7-20.5 397.02-20.63 396.35-20.75 395.2-20.75L395.2-20.75Q393.65-20.75 392.15-19.93 390.65-19.1 389.68-17.45 388.7-15.8 388.7-13.25L388.7-13.25 388.7 0ZM406.75-29.2L406.75-29.2Q405-29.2 404.07-30.08 403.15-30.95 403.15-32.55L403.15-32.55Q403.15-34.15 404.07-35 405-35.85 406.75-35.85L406.75-35.85Q408.45-35.85 409.38-35 410.3-34.15 410.3-32.55L410.3-32.55Q410.3-30.95 409.38-30.08 408.45-29.2 406.75-29.2ZM404.05-25L409.4-25 409.4 0 404.05 0 404.05-25ZM426.95-4.65L434.2-25 439.8-25 429.85 0 424 0 414-25 419.85-25 426.95-4.65ZM455.35 0.5L455.35 0.5Q451.6 0.5 448.75-1.05 445.9-2.6 444.32-5.53 442.75-8.45 442.75-12.5L442.75-12.5Q442.75-16.55 444.32-19.48 445.9-22.4 448.7-23.95 451.5-25.5 455.05-25.5L455.05-25.5Q458.7-25.5 461.25-24 463.8-22.5 465.15-19.9 466.5-17.3 466.5-14L466.5-14Q466.5-13.1 466.45-12.3 466.4-11.5 466.3-10.9L466.3-10.9 446.2-10.9 446.2-15 463.95-15 461.3-14.2Q461.3-17.6 459.6-19.43 457.9-21.25 454.95-21.25L454.95-21.25Q452.8-21.25 451.2-20.25 449.6-19.25 448.75-17.28 447.9-15.3 447.9-12.45L447.9-12.45Q447.9-9.65 448.8-7.7 449.7-5.75 451.35-4.75 453-3.75 455.25-3.75L455.25-3.75Q457.75-3.75 459.3-4.7 460.85-5.65 461.75-7.35L461.75-7.35 466-5.35Q465.1-3.55 463.57-2.23 462.05-0.9 459.95-0.2 457.85 0.5 455.35 0.5ZM478.6 0L473.25 0 473.25-25 478-25 478.35-18.5 477.65-19.2Q478.35-21.35 479.67-22.78 481-24.2 482.82-24.85 484.65-25.5 486.7-25.5L486.7-25.5Q489.35-25.5 491.47-24.48 493.6-23.45 494.85-21.4 496.1-19.35 496.1-16.2L496.1-16.2 496.1 0 490.75 0 490.75-14.55Q490.75-18.25 489.22-19.68 487.7-21.1 485.4-21.1L485.4-21.1Q483.75-21.1 482.2-20.33 480.65-19.55 479.62-17.85 478.6-16.15 478.6-13.3L478.6-13.3 478.6 0ZM534.9-9.25L534.9-16.05Q534.9-18.55 533.52-19.93 532.15-21.3 529.75-21.3L529.75-21.3Q527.5-21.3 525.9-20.25 524.3-19.2 523.55-16.85L523.55-16.85 519.05-18.75Q520-21.8 522.77-23.65 525.55-25.5 529.95-25.5L529.95-25.5Q532.95-25.5 535.25-24.53 537.55-23.55 538.88-21.6 540.2-19.65 540.2-16.6L540.2-16.6 540.2-5.45Q540.2-3.6 542.05-3.6L542.05-3.6Q542.95-3.6 543.8-3.85L543.8-3.85 543.5-0.15Q542.35 0.4 540.6 0.4L540.6 0.4Q539 0.4 537.72-0.18 536.45-0.75 535.72-1.93 535-3.1 535-4.85L535-4.85 535-5.2 536.1-5.25Q535.65-3.3 534.25-2.02 532.85-0.75 531-0.13 529.15 0.5 527.25 0.5L527.25 0.5Q524.9 0.5 523.02-0.25 521.15-1 520.07-2.53 519-4.05 519-6.3L519-6.3Q519-9.1 520.82-10.9 522.65-12.7 526-13.35L526-13.35 535.7-15.25 535.65-11.5 528.6-10.05Q526.5-9.65 525.45-8.9 524.4-8.15 524.4-6.7L524.4-6.7Q524.4-5.3 525.47-4.48 526.55-3.65 528.35-3.65L528.35-3.65Q529.6-3.65 530.77-3.95 531.95-4.25 532.9-4.93 533.85-5.6 534.38-6.68 534.9-7.75 534.9-9.25L534.9-9.25ZM554.3 10.5L548.95 10.5 548.95-25 553.7-25 554.1-18 553.4-18.85Q554-20.8 555.25-22.3 556.5-23.8 558.38-24.65 560.25-25.5 562.5-25.5L562.5-25.5Q565.55-25.5 568.05-23.95 570.55-22.4 572-19.53 573.45-16.65 573.45-12.55L573.45-12.55Q573.45-8.45 571.97-5.53 570.5-2.6 567.97-1.05 565.45 0.5 562.35 0.5L562.35 0.5Q559.15 0.5 556.9-1.18 554.65-2.85 553.7-5.45L553.7-5.45 554.3-6.3 554.3 10.5ZM561.2-3.85L561.2-3.85Q564.45-3.85 566.27-6.15 568.1-8.45 568.1-12.5L568.1-12.5Q568.1-16.55 566.3-18.88 564.5-21.2 561.3-21.2L561.3-21.2Q559.2-21.2 557.63-20.13 556.05-19.05 555.17-17.13 554.3-15.2 554.3-12.5L554.3-12.5Q554.3-9.85 555.15-7.9 556-5.95 557.55-4.9 559.1-3.85 561.2-3.85ZM585.65 10.5L580.3 10.5 580.3-25 585.05-25 585.45-18 584.75-18.85Q585.35-20.8 586.6-22.3 587.85-23.8 589.73-24.65 591.6-25.5 593.85-25.5L593.85-25.5Q596.9-25.5 599.4-23.95 601.9-22.4 603.35-19.53 604.8-16.65 604.8-12.55L604.8-12.55Q604.8-8.45 603.32-5.53 601.85-2.6 599.32-1.05 596.8 0.5 593.7 0.5L593.7 0.5Q590.5 0.5 588.25-1.18 586-2.85 585.05-5.45L585.05-5.45 585.65-6.3 585.65 10.5ZM592.55-3.85L592.55-3.85Q595.8-3.85 597.63-6.15 599.45-8.45 599.45-12.5L599.45-12.5Q599.45-16.55 597.65-18.88 595.85-21.2 592.65-21.2L592.65-21.2Q590.55-21.2 588.98-20.13 587.4-19.05 586.52-17.13 585.65-15.2 585.65-12.5L585.65-12.5Q585.65-9.85 586.5-7.9 587.35-5.95 588.9-4.9 590.45-3.85 592.55-3.85ZM611.5-36.25L616.85-36.25 616.85-7Q616.85-5.15 617.5-4.45 618.15-3.75 619.65-3.75L619.65-3.75Q620.55-3.75 621.17-3.88 621.8-4 622.75-4.35L622.75-4.35 622.15-0.35Q621.3 0.05 620.2 0.28 619.1 0.5 618 0.5L618 0.5Q614.65 0.5 613.08-1.23 611.5-2.95 611.5-6.55L611.5-6.55 611.5-36.25ZM629.95-29.2L629.95-29.2Q628.2-29.2 627.27-30.08 626.35-30.95 626.35-32.55L626.35-32.55Q626.35-34.15 627.27-35 628.2-35.85 629.95-35.85L629.95-35.85Q631.65-35.85 632.58-35 633.5-34.15 633.5-32.55L633.5-32.55Q633.5-30.95 632.58-30.08 631.65-29.2 629.95-29.2ZM627.25-25L632.6-25 632.6 0 627.25 0 627.25-25ZM651.75-25.5L651.75-25.5Q654.75-25.5 656.88-24.63 659-23.75 660.45-22.15 661.9-20.55 662.65-18.5L662.65-18.5 657.6-16.5Q656.95-18.8 655.53-20.03 654.1-21.25 651.8-21.25L651.8-21.25Q649.55-21.25 647.95-20.23 646.35-19.2 645.53-17.25 644.7-15.3 644.7-12.45L644.7-12.45Q644.7-9.65 645.55-7.7 646.4-5.75 648-4.75 649.6-3.75 651.8-3.75L651.8-3.75Q653.5-3.75 654.75-4.33 656-4.9 656.83-5.98 657.65-7.05 657.95-8.6L657.95-8.6 662.8-6.95Q662.1-4.7 660.63-3.03 659.15-1.35 656.95-0.43 654.75 0.5 651.9 0.5L651.9 0.5Q648.2 0.5 645.35-1.05 642.5-2.6 640.93-5.53 639.35-8.45 639.35-12.5L639.35-12.5Q639.35-16.55 640.93-19.48 642.5-22.4 645.33-23.95 648.15-25.5 651.75-25.5ZM683.5-9.25L683.5-16.05Q683.5-18.55 682.13-19.93 680.75-21.3 678.35-21.3L678.35-21.3Q676.1-21.3 674.5-20.25 672.9-19.2 672.15-16.85L672.15-16.85 667.65-18.75Q668.6-21.8 671.38-23.65 674.15-25.5 678.55-25.5L678.55-25.5Q681.55-25.5 683.85-24.53 686.15-23.55 687.48-21.6 688.8-19.65 688.8-16.6L688.8-16.6 688.8-5.45Q688.8-3.6 690.65-3.6L690.65-3.6Q691.55-3.6 692.4-3.85L692.4-3.85 692.1-0.15Q690.95 0.4 689.2 0.4L689.2 0.4Q687.6 0.4 686.33-0.18 685.05-0.75 684.33-1.93 683.6-3.1 683.6-4.85L683.6-4.85 683.6-5.2 684.7-5.25Q684.25-3.3 682.85-2.02 681.45-0.75 679.6-0.13 677.75 0.5 675.85 0.5L675.85 0.5Q673.5 0.5 671.63-0.25 669.75-1 668.68-2.53 667.6-4.05 667.6-6.3L667.6-6.3Q667.6-9.1 669.43-10.9 671.25-12.7 674.6-13.35L674.6-13.35 684.3-15.25 684.25-11.5 677.2-10.05Q675.1-9.65 674.05-8.9 673-8.15 673-6.7L673-6.7Q673-5.3 674.08-4.48 675.15-3.65 676.95-3.65L676.95-3.65Q678.2-3.65 679.38-3.95 680.55-4.25 681.5-4.93 682.45-5.6 682.98-6.68 683.5-7.75 683.5-9.25L683.5-9.25ZM699.5-30.85L704.85-32.35 704.85-7.5Q704.85-5.65 705.83-4.8 706.8-3.95 708.45-3.95L708.45-3.95Q709.8-3.95 710.8-4.38 711.8-4.8 712.65-5.55L712.65-5.55 713.85-1.65Q712.7-0.65 711.03-0.08 709.35 0.5 707.3 0.5L707.3 0.5Q705.15 0.5 703.35-0.2 701.55-0.9 700.55-2.48 699.55-4.05 699.5-6.6L699.5-6.6 699.5-30.85ZM694.7-25L713.45-25 713.45-20.8 694.7-20.8 694.7-25ZM721.45-29.2L721.45-29.2Q719.7-29.2 718.78-30.08 717.85-30.95 717.85-32.55L717.85-32.55Q717.85-34.15 718.78-35 719.7-35.85 721.45-35.85L721.45-35.85Q723.15-35.85 724.08-35 725-34.15 725-32.55L725-32.55Q725-30.95 724.08-30.08 723.15-29.2 721.45-29.2ZM718.75-25L724.1-25 724.1 0 718.75 0 718.75-25ZM743.3-25.5L743.3-25.5Q746.95-25.5 749.75-23.95 752.55-22.4 754.13-19.48 755.7-16.55 755.7-12.5L755.7-12.5Q755.7-8.45 754.13-5.53 752.55-2.6 749.75-1.05 746.95 0.5 743.3 0.5L743.3 0.5Q739.65 0.5 736.85-1.05 734.05-2.6 732.45-5.53 730.85-8.45 730.85-12.5L730.85-12.5Q730.85-16.55 732.45-19.48 734.05-22.4 736.85-23.95 739.65-25.5 743.3-25.5ZM743.3-21.3L743.3-21.3Q741.05-21.3 739.48-20.28 737.9-19.25 737.05-17.3 736.2-15.35 736.2-12.5L736.2-12.5Q736.2-9.7 737.05-7.73 737.9-5.75 739.48-4.73 741.05-3.7 743.3-3.7L743.3-3.7Q745.55-3.7 747.1-4.73 748.65-5.75 749.5-7.73 750.35-9.7 750.35-12.5L750.35-12.5Q750.35-15.35 749.5-17.3 748.65-19.25 747.1-20.28 745.55-21.3 743.3-21.3ZM767.8 0L762.45 0 762.45-25 767.2-25 767.55-18.5 766.85-19.2Q767.55-21.35 768.88-22.78 770.2-24.2 772.03-24.85 773.85-25.5 775.9-25.5L775.9-25.5Q778.55-25.5 780.68-24.48 782.8-23.45 784.05-21.4 785.3-19.35 785.3-16.2L785.3-16.2 785.3 0 779.95 0 779.95-14.55Q779.95-18.25 778.43-19.68 776.9-21.1 774.6-21.1L774.6-21.1Q772.95-21.1 771.4-20.33 769.85-19.55 768.83-17.85 767.8-16.15 767.8-13.3L767.8-13.3 767.8 0ZM802.9 0.5L802.9 0.5Q799.15 0.5 796.05-0.95 792.95-2.4 791.15-5.05L791.15-5.05 794.85-8.25Q795.95-6.2 798.03-4.98 800.1-3.75 803-3.75L803-3.75Q805.3-3.75 806.65-4.55 808-5.35 808-6.8L808-6.8Q808-7.75 807.38-8.47 806.75-9.2 805-9.6L805-9.6 799.75-10.7Q795.75-11.5 794.05-13.28 792.35-15.05 792.35-17.8L792.35-17.8Q792.35-19.85 793.55-21.6 794.75-23.35 797.08-24.43 799.4-25.5 802.65-25.5L802.65-25.5Q806.4-25.5 809.05-24.18 811.7-22.85 813.1-20.4L813.1-20.4 809.4-17.3Q808.45-19.3 806.6-20.28 804.75-21.25 802.75-21.25L802.75-21.25Q801.15-21.25 800-20.85 798.85-20.45 798.25-19.75 797.65-19.05 797.65-18.1L797.65-18.1Q797.65-17.1 798.4-16.35 799.15-15.6 801.1-15.2L801.1-15.2 806.8-14Q810.4-13.3 811.88-11.63 813.35-9.95 813.35-7.55L813.35-7.55Q813.35-5.15 812.1-3.33 810.85-1.5 808.5-0.5 806.15 0.5 802.9 0.5Z" opacity="1" transform="matrix(1,0,0,1,0,0)" fill="#ffffff" class="slogan-text-1" data-fill-palette-color="quaternary" id="text-1"></path></svg></g></svg></g></svg></g></svg></g><g></g></svg></g><defs></defs></svg><rect width="356.12052" height="107.59199731524556" fill="none" stroke="none" visibility="hidden"></rect></g></svg></g></svg>